<?xml version="1.0" encoding="UTF-8"?>
<svg id="Layer_1" data-name="Layer 1" xmlns="http://www.w3.org/2000/svg" viewBox="0 0 1500 1500">
  <defs>
    <style>
      .cls-1 {
        fill: #dad4f8;
      }

      .cls-1, .cls-2, .cls-3, .cls-4, .cls-5, .cls-6, .cls-7, .cls-8, .cls-9, .cls-10, .cls-11, .cls-12, .cls-13, .cls-14 {
        stroke-width: 0px;
      }

      .cls-2 {
        fill: #161654;
      }

      .cls-15 {
        fill: none;
        stroke: #f3edff;
        stroke-miterlimit: 10;
        stroke-width: 5.25px;
      }

      .cls-3 {
        fill: #cc5f29;
      }

      .cls-4 {
        fill: #a6afe2;
      }

      .cls-5 {
        fill: #393c61;
      }

      .cls-6 {
        fill: #bbc3ed;
      }

      .cls-7 {
        fill: #32327a;
      }

      .cls-8 {
        fill: #f3edff;
      }

      .cls-9 {
        fill: #fff;
      }

      .cls-10 {
        fill: #3b3e63;
      }

      .cls-11 {
        fill: #c8c1e8;
      }

      .cls-12 {
        fill: #f18b8b;
      }

      .cls-13 {
        fill: #f29134;
      }

      .cls-14 {
        fill: #ffb8b8;
      }
    </style>
  </defs>
  <g>
    <path class="cls-8" d="M1234.61,752.31c35.19-37.73,68.23-88.62,50.25-136.35-18.03-47.85-77.16-66.18-129.02-75.33-51.86-9.15-110.7-19.26-139.42-61.96-28.99-43.1-15.15-103.55-43.64-146.96-30.25-46.1-94.69-55.23-151-59.84-85.86-7.02-174.28-13.8-256.54,10.96-82.27,24.76-157.91,89.06-167.27,171.79-9.51,84.1,49.22,169.37,23.39,250.21-26.81,83.9-135.95,130.18-146.82,217.35-5.69,45.63,18.08,89.34,41.09,129.58,29.44,51.48,58.88,106.21,88.33,157.69h731.02c-10.51-14.32-.11-34.93,14.56-45.29,14.67-10.36,33.04-15.18,47.14-26.26,37.33-29.33,28.91-86.91,7.86-128.71-21.05-41.8-52-82.66-49.45-129.07,2.79-50.71,44.34-90.07,79.54-127.81Z"/>
    <path class="cls-8" d="M334.47,787.66c78.86-75.94,72.85-116.35,56.66-217.52-7.9-49.37-70.68-.99-93.08,73.86-23.5,78.53-5.54,184.07,36.42,143.67Z"/>
  </g>
  <g id="Artwork_52" data-name="Artwork 52">
    <path class="cls-11" d="M591.45,1171.37c-10.43,18.55-154.28,58.23-155.36,3.58-.9-46.02,103.69-32.32,142.07-16.17-11.44-11.19-22.41-22.74-32.91-34.23-10.06-11-19.73-22.32-29.02-33.93-22.57,14.39-161.15,17.86-150.06-33.72,8.87-41.28,92.6-13.3,132.37,10.53-13.98-19.04-27-38.77-39.08-59.06-16.65,14.36-164.3,9.38-149.18-42.88,12.63-43.67,106.23-1.19,139.24,25.69-12.36-22.02-23.68-44.63-33.95-67.72-21.04,11.1-163.19-13.14-141.63-62.39,17.84-40.75,101.74,10.39,132.72,41.61-5.39-13.04-10.44-26.22-15.19-39.5-22.17-9.05-95.67-132.76-44.24-148.26,48.59-14.65,61.87,113.76,51.67,142.94,5.33,15.03,11.11,29.88,17.27,44.56,1.81-41.02,35.83-144.72,76.93-121.82,46.28,25.8-46.19,132.44-70.08,137.79,10.11,22.75,21.29,45,33.46,66.69-2.44-42.8,17.82-144.94,60.57-127.99,48.6,19.27-26.45,134.21-50.54,145.35,14.68,24.64,30.72,48.46,48.18,71.3-8.31-36,3.47-154.26,50.18-139.42,51.48,16.36-21.61,143.85-42.44,149.44,9.53,12.02,19.44,23.78,29.77,35.2,9.26,10.24,18.94,20.52,29.04,30.51-14.88-40.7-25.4-142.89,20.17-139.4,52.09,3.99,14.6,135.86-5.1,153.78,18.79,17.26,38.9,33.13,60.36,45.78,4.94,2.91-.39,10.06-5.29,7.17-21.36-12.6-41.27-28.35-59.93-45.46Z"/>
  </g>
  <g id="Artwork_54" data-name="Artwork 54">
    <g>
      <path class="cls-1" d="M811.21,1215.51c5.08-33.21,12.04-66.13,20.84-98.56,8.79-32.36,19.44-64.2,31.81-95.37,12.4-31.23,26.53-61.78,42.31-91.44,15.75-29.61,33.13-58.33,52.1-85.98,18.92-27.58,39.38-54.09,61.29-79.36,2.78-3.2,5.58-6.38,8.4-9.55,3.69-4.14-2.93-9.61-6.61-5.49-22.58,25.31-43.7,51.9-63.24,79.62-19.49,27.65-37.43,56.39-53.72,86.03-16.27,29.58-30.88,60.07-43.76,91.28-12.97,31.42-24.13,63.56-33.52,96.22-9.32,32.44-16.82,65.41-22.39,98.7-.7,4.18-1.37,8.37-2.01,12.56-.83,5.46,7.65,6.81,8.49,1.33h0Z"/>
      <path class="cls-1" d="M947.8,860.77c-6.31-65.65,11.07-162.9,12.63-227.54,1.72-71.33,11.68-148.01,71.98-189.36,15.73-10.78,35.79-18.83,58.04-15.85,31.26,4.18,58.55,29.74,69.15,56.06,10.6,26.32,7.8,53.12,2.75,78.24-24.67,122.66-101.59,229.66-214.55,298.45"/>
      <path class="cls-1" d="M853.02,1038.72c-43.29-45.38-86.81-128.12-123.44-177.32-40.42-54.28-77.62-117.35-55.32-183.25,5.81-17.19,16.58-34.85,35.48-45.54,26.55-15.02,62.56-11.78,86.13,1.74,23.58,13.51,37.11,35.15,47.92,56.85,52.77,105.96,56.09,230.54,9.24,347.52"/>
      <path class="cls-1" d="M819.99,1134.21c34.08-62.53,107.61-145.45,147.86-204.2,44.42-64.82,99.17-131.57,176.1-147.59,20.07-4.18,42.22-4.27,59.63,6.55,24.46,15.2,32.63,48.57,25.93,76.58-6.7,28.01-25.24,51.58-44.72,72.79-95.13,103.59-225.91,173.81-364.81,195.87"/>
    </g>
  </g>
  <g id="Artwork_50" data-name="Artwork 50">
    <path class="cls-11" d="M794.59,1218.82c41.09-11.29,80.95-32.61,117.55-55.9,1.6,1.08,3.93,2.57,6.91,4.23,6.05,3.45,14.77,7.75,25.25,11.67,10.47,3.9,22.75,7.5,35.9,10.05,13.2,2.58,27.29,4.09,41.4,4.62,14.14.41,28.29-.16,41.61-1.89,6.69-.84,13.1-1.94,19.24-3.24,6.1-1.29,11.88-2.9,17.26-4.46,5.35-1.62,10.24-3.35,14.66-5.07,4.36-1.75,8.15-3.43,11.28-4.97,6.31-3.06,9.93-5.46,9.93-5.46,0,0-3.46-2.65-9.52-6.09-3.05-1.76-6.76-3.69-11-5.71-4.23-2-9.05-4.01-14.27-6.01-5.25-1.9-10.91-3.9-16.95-5.55-6.04-1.69-12.38-3.23-18.98-4.49-13.17-2.6-27.27-4.07-41.39-4.55-14.13-.37-28.31.2-41.61,1.95-13.33,1.66-25.78,4.47-36.5,7.7-5.26,1.59-10.08,3.3-14.4,5,2.73-1.86,5.47-3.69,8.19-5.55,26.22-17.87,51.2-37.29,75.17-57.84,1.25.76,2.7,1.6,4.38,2.56,6.07,3.47,14.8,7.76,25.27,11.66,10.48,3.92,22.72,7.51,35.91,10.07,13.14,2.59,27.28,4.09,41.39,4.62,14.13.43,28.29-.12,41.59-1.89,6.67-.83,13.11-1.94,19.25-3.25,6.1-1.27,11.9-2.88,17.27-4.46,5.38-1.62,10.25-3.35,14.64-5.05,4.34-1.75,8.16-3.44,11.31-4.98,6.29-3.06,9.91-5.46,9.91-5.46,0,0-3.47-2.66-9.5-6.09-3.08-1.75-6.79-3.7-11-5.7-4.25-2-9.05-4.02-14.3-6.02-5.23-1.91-10.89-3.88-16.93-5.56-6.03-1.69-12.4-3.2-18.99-4.47-13.17-2.58-27.28-4.07-41.39-4.54-14.14-.39-28.3.18-41.6,1.91-13.32,1.71-25.8,4.48-36.52,7.73-5.61,1.7-10.72,3.53-15.27,5.29,22.95-20.6,44.85-42.32,65.71-65.04,1.51.37,3.22.8,5.2,1.22,6.87,1.43,16.48,2.89,27.63,3.45,11.17.57,23.95.29,37.28-1.29,13.33-1.51,27.23-4.33,40.85-8.13,13.62-3.85,26.93-8.68,39.09-14.38,6.09-2.81,11.9-5.79,17.33-8.91,5.45-3.06,10.49-6.34,15.12-9.46,4.59-3.2,8.78-6.3,12.42-9.27,3.63-2.98,6.79-5.73,9.27-8.16,5.08-4.79,7.8-8.21,7.8-8.21,0,0-4.09-1.47-10.92-2.93-3.43-.73-7.52-1.44-12.2-2.08-4.65-.63-9.81-1.11-15.41-1.44-5.58-.2-11.6-.39-17.84-.15-6.25.22-12.78.69-19.46,1.45-13.32,1.54-27.22,4.38-40.81,8.21-13.6,3.89-26.9,8.73-39.08,14.44-11.95,5.51-22.75,11.82-31.86,18,16.82-19.71,32.95-40.05,48.39-60.92,5.52-3.46,12.19-8.11,19.31-14.02,8.6-7.2,17.77-16.07,26.5-26.26,8.81-10.17,17.07-21.66,24.51-33.68,7.39-12.04,13.9-24.63,18.99-37.08,2.56-6.2,4.78-12.33,6.69-18.29,1.91-5.93,3.37-11.79,4.69-17.22,1.23-5.46,2.16-10.59,2.83-15.23.66-4.66,1.1-8.78,1.28-12.29.5-6.96.15-11.32.15-11.32,0,0-3.99,1.7-10,5.26-3.04,1.79-6.53,4.03-10.37,6.74-3.84,2.68-8.01,5.85-12.3,9.43-4.27,3.62-8.8,7.55-13.23,11.97-4.44,4.4-8.91,9.16-13.27,14.25-8.78,10.16-17.04,21.69-24.48,33.72-7.3,12.08-13.8,24.69-18.9,37.11-5.13,12.43-8.87,24.62-11.37,35.53-2.5,10.9-3.71,20.53-4.18,27.52-.16,2.37-.22,4.39-.24,6.1-25.01,33.3-51.88,65.25-80.62,95.33,2.38-6.11,5.02-13.99,7.27-23.13,2.65-10.88,4.76-23.48,5.76-36.86,1.02-13.4.83-27.56-.29-41.64-1.24-14.09-3.46-28.08-6.77-41.09-1.64-6.55-3.46-12.82-5.49-18.74-1.99-5.92-4.26-11.48-6.44-16.62-2.28-5.12-4.56-9.79-6.78-13.93-2.25-4.13-4.36-7.72-6.28-10.67-3.74-5.87-6.55-9.17-6.55-9.17,0,0-2.24,3.73-4.94,10.16-1.4,3.24-2.87,7.13-4.38,11.58-1.46,4.46-2.92,9.45-4.29,14.87-1.25,5.44-2.57,11.31-3.52,17.51-.95,6.16-1.73,12.66-2.23,19.35-1.02,13.41-.84,27.59.35,41.66,1.28,14.1,3.55,28.07,6.83,41.09,3.23,13.01,7.48,25.08,11.96,35.35,4.47,10.25,9.21,18.72,12.99,24.58,1.32,2.08,2.54,3.86,3.56,5.23-29.23,29.73-60.28,57.55-93.35,82.83.54-1.2,1.14-2.54,1.79-4.06,2.7-6.45,5.92-15.6,8.58-26.46,2.67-10.88,4.77-23.45,5.78-36.84,1.01-13.39.86-27.56-.3-41.67-1.24-14.08-3.47-28.08-6.77-41.11-1.61-6.48-3.46-12.78-5.49-18.68-1.99-5.91-4.27-11.48-6.44-16.63-2.27-5.13-4.54-9.82-6.78-13.93-2.23-4.12-4.34-7.72-6.26-10.68-3.76-5.84-6.59-9.17-6.59-9.17,0,0-2.22,3.72-4.93,10.17-1.37,3.22-2.85,7.12-4.36,11.58-1.47,4.46-2.95,9.45-4.28,14.9-1.3,5.43-2.62,11.31-3.51,17.47-.99,6.18-1.76,12.68-2.24,19.39-1,13.38-.83,27.54.37,41.64,1.25,14.08,3.52,28.09,6.8,41.11,3.26,13.02,7.49,25.07,11.97,35.31,4.48,10.25,9.22,18.7,13,24.6,1.86,2.92,3.5,5.22,4.65,6.78-12.71,9.6-25.71,18.84-39.03,27.62-16.32,10.8-33.36,21.59-50.94,31.56.73-1.5,1.57-3.32,2.45-5.49,2.74-6.46,5.97-15.59,8.58-26.46,2.71-10.87,4.82-23.48,5.79-36.84,1.04-13.43.89-27.58-.3-41.68-1.21-14.08-3.43-28.05-6.71-41.07-1.62-6.54-3.49-12.82-5.53-18.74-1.97-5.91-4.27-11.48-6.44-16.63-2.25-5.1-4.54-9.8-6.78-13.93-2.25-4.12-4.37-7.71-6.25-10.64-3.77-5.89-6.58-9.19-6.58-9.19,0,0-2.22,3.73-4.96,10.17-1.35,3.22-2.84,7.14-4.33,11.57-1.5,4.46-2.93,9.45-4.31,14.89-1.26,5.42-2.59,11.33-3.48,17.48-.99,6.18-1.77,12.67-2.25,19.37-1,13.41-.82,27.56.35,41.66,1.3,14.08,3.51,28.06,6.82,41.12,3.24,13.02,7.5,25.04,11.95,35.3,4.5,10.27,9.23,18.7,13.03,24.61,1.88,2.99,3.55,5.32,4.73,6.89-25.81,14.35-52.83,26.75-80.63,34.39-5.93,1.66-3.16,10.84,2.78,9.2Z"/>
  </g>
  <g id="phone-call">
    <g>
      <path class="cls-13" d="M614.87,372.08c11.44,0,20.72,9.28,20.72,20.72,0,3.81,3.09,6.91,6.91,6.91s6.91-3.09,6.91-6.91c0-19.07-15.46-34.54-34.54-34.54-3.81,0-6.91,3.09-6.91,6.91s3.09,6.91,6.91,6.91Z"/>
      <path class="cls-13" d="M614.87,344.45c26.7,0,48.35,21.65,48.35,48.35,0,3.81,3.09,6.91,6.91,6.91s6.91-3.09,6.91-6.91c0-34.33-27.83-62.16-62.16-62.16-3.81,0-6.91,3.09-6.91,6.91s3.09,6.91,6.91,6.91Z"/>
      <path class="cls-7" d="M675.31,426.72c-.77-2.25-2.65-3.95-4.97-4.49l-41.44-9.46c-2.29-.52-4.68.16-6.35,1.8-.97.9-1.04.97-5.53,9.53-14.9-6.86-26.83-18.85-33.64-33.78,8.77-4.42,8.84-4.42,9.74-5.46,1.64-1.68,2.31-4.07,1.8-6.35l-9.46-40.96c-.54-2.32-2.24-4.2-4.49-4.97-1.61-.58-3.28-.99-4.97-1.24-1.75-.4-3.53-.64-5.32-.69-17.55,0-31.77,14.23-31.77,31.77.08,58.72,47.66,106.29,106.37,106.37,17.55,0,31.77-14.23,31.77-31.77h0c0-1.76-.14-3.51-.41-5.25-.29-1.72-.73-3.4-1.31-5.04Z"/>
    </g>
  </g>
  <g id="talk_chat" data-name="talk chat">
    <g>
      <g>
        <path class="cls-7" d="M1013.76,391.46h-84.87c-17.59,0-31.98-14.39-31.98-31.98h0c0-17.59,14.39-31.98,31.98-31.98h84.87c17.59,0,31.98,14.39,31.98,31.98h0c0,17.59-14.39,31.98-31.98,31.98Z"/>
        <path class="cls-7" d="M1021.74,401.29c0,3.9-3.16,7.07-7.07,7.07s-7.07-3.16-7.07-7.07,3.16-7.07,7.07-7.07,7.07,3.16,7.07,7.07Z"/>
      </g>
      <g>
        <path class="cls-9" d="M952.77,358.62c0,5.12-4.15,9.27-9.27,9.27s-9.27-4.15-9.27-9.27,4.15-9.27,9.27-9.27,9.27,4.15,9.27,9.27Z"/>
        <path class="cls-9" d="M980.6,358.62c0,5.12-4.15,9.27-9.27,9.27s-9.27-4.15-9.27-9.27,4.15-9.27,9.27-9.27,9.27,4.15,9.27,9.27Z"/>
        <path class="cls-9" d="M1008.42,358.62c0,5.12-4.15,9.27-9.27,9.27s-9.27-4.15-9.27-9.27,4.15-9.27,9.27-9.27,9.27,4.15,9.27,9.27Z"/>
      </g>
      <g>
        <g>
          <path class="cls-13" d="M890.05,465.76h84.87c17.59,0,31.98-14.39,31.98-31.98h0c0-17.59-14.39-31.98-31.98-31.98h-84.87c-17.59,0-31.98,14.39-31.98,31.98h0c0,17.59,14.39,31.98,31.98,31.98Z"/>
          <path class="cls-13" d="M882.07,475.59c0,3.9,3.16,7.07,7.07,7.07s7.07-3.16,7.07-7.07-3.16-7.07-7.07-7.07-7.07,3.16-7.07,7.07Z"/>
        </g>
        <g>
          <path class="cls-9" d="M913.93,433.21c0,5.12-4.15,9.27-9.27,9.27s-9.27-4.15-9.27-9.27,4.15-9.27,9.27-9.27,9.27,4.15,9.27,9.27Z"/>
          <path class="cls-9" d="M941.76,433.21c0,5.12-4.15,9.27-9.27,9.27s-9.27-4.15-9.27-9.27,4.15-9.27,9.27-9.27,9.27,4.15,9.27,9.27Z"/>
          <path class="cls-9" d="M969.59,433.21c0,5.12-4.15,9.27-9.27,9.27s-9.27-4.15-9.27-9.27,4.15-9.27,9.27-9.27,9.27,4.15,9.27,9.27Z"/>
        </g>
      </g>
    </g>
  </g>
  <path class="cls-4" d="M765.1,656.62c-2.94,7.58-7.87,13.67-13.67,17.6-7.4,5.09-16.24,6.72-24.24,3.62-14.25-5.51-20.36-23.98-13.67-41.22,6.66-17.24,23.64-26.73,37.88-21.22.08.03.16.05.24.11,14.09,5.64,20.1,23.98,13.46,41.11Z"/>
  <g id="Character_man" data-name="Character man">
    <g>
      <path class="cls-14" d="M415.84,630.89c14.91,22.72,58.32,88.76,82.68,124.55-18.46,34.55-57.13,53.67-57.13,53.67,0,0-19.99-53.49-30.52-82.44-10.53-28.95-18.68-51.49-18.36-66.29.04-2.05,1.72-2.73,2.86-2.96l-1.59-2.88c-1.94-3.51-.55-7.93,3.05-9.7,2.29-1.12,4.87-.83,6.89.47l-2.95-4.77c-2.44-3.94-1.46-9.1,2.25-11.87,4.13-3.09,9.99-2.09,12.82,2.22Z"/>
      <path class="cls-12" d="M429.7,722.7c.46-17.97,16.55-32.17,22.71-36.13l2.14,3.34c-7.88,5.06-20.53,18.47-20.89,32.89l-3.96-.1Z"/>
      <rect class="cls-12" x="413.72" y="642.62" width="1.98" height="46.14" transform="translate(-278.87 299.53) rotate(-30.25)"/>
      <rect class="cls-12" x="402.9" y="655.98" width="1.98" height="42.69" transform="translate(-253.3 241.44) rotate(-25.64)"/>
    </g>
    <g>
      <g>
        <g>
          <path class="cls-14" d="M822.59,689.72l.09,1.51.88,46.39,2.26,117.8-141.02-37.92,67.93-44.69-.68-17.74-2.3-61.61c-.82-20.01,14.68-36.94,34.67-37.95,20.06-.95,36.99,14.42,38.18,34.22Z"/>
          <path class="cls-12" d="M822.59,689.72l.09,1.51.88,46.39c-7.29,3.92-14.87,7.28-22.47,10.33-12.23,4.91-23.1,8.34-36.32,8.38-4.24,0-8.67-.05-12.73-1.26l-2.3-61.61c-.82-20.01,14.68-36.94,34.67-37.95,20.06-.95,36.99,14.42,38.18,34.22Z"/>
          <path class="cls-7" d="M852.62,665.59c-10.44,25.3-18.33,35.14-26.91,32.43-24.73,42.36-58.76,58.32-89.12,50.08-24.63-6.62-23.36-42.51-16.46-75,1.64-7.5,3.54-14.89,5.47-21.65,3.2-11.01,8.49-26.13,15.89-43.09-19.51-60.45,39.04-73.71,77.69-29.65,2.06-1.52,4.27-2.66,6.58-3.24,10.2-2.89,21.67,4.71,30.25,32.86,17.68,19.38,7.11,31.97-3.4,57.27Z"/>
          <path class="cls-10" d="M838.84,606.69c-3.2-5.94-9.15-13.31-19.65-27.99,2.06-1.52,4.27-2.66,6.58-3.24,5.06,9.5,12.28,24.32,13.07,31.23Z"/>
          <path class="cls-14" d="M844.54,674.3c-11.86,23.87-30.21,13.14-31.86,3.56-9.6,13.99-15.84,17.59-20.11,18.04-4.28.45-16.18-7.06-21.28-8.72-5.16-1.71-30.91,5.78-51.08-14.02l-.07-.06c1.64-7.5,3.54-14.89,5.47-21.65,3.2-11.01,8.49-26.13,15.89-43.09,10.94-13.88,44.32-40.62,83.37,28.22-3.13,13.28-5.36,23.48-8.18,30.29,19.05-23.03,39.7-16.36,27.84,7.44Z"/>
          <path class="cls-12" d="M819.63,671.05c.88-2.3,2.17-4.43,3.85-6.23,1.62-1.86,3.61-3.43,5.87-4.59,2.25-1.15,4.8-1.95,7.5-1.82,1.33.04,2.73.38,3.92,1.16,1.18.75,2.05,2.13,1.87,3.41-.73-1.05-1.68-1.5-2.65-1.62-.95-.17-1.96-.06-2.96.15-1.99.45-3.95,1.27-5.85,2.25-1.92.97-3.78,2.14-5.66,3.39-1.91,1.23-3.73,2.63-5.88,3.9Z"/>
          <path class="cls-12" d="M822.04,668.39c.89-1.1,2.23-1.84,3.64-2.18,1.41-.37,2.92-.38,4.38-.02,1.44.38,2.88,1.19,3.77,2.49.92,1.27,1.1,2.9.75,4.24-.83-2.76-2.65-4.25-5.01-4.81-1.16-.32-2.4-.4-3.66-.37-1.26.07-2.54.21-3.87.66Z"/>
          <path class="cls-12" d="M753.05,643.99c-11.83,15.49-25.88,22.04-27.65,26.17-1.77,4.14,4.36,12.23,19.63,15.01,9.04-5.73,1.73-15.11,8.01-41.18Z"/>
          <path class="cls-7" d="M781.79,650.32c.22,3.63-2,6.72-4.96,6.9-2.96.18-5.53-2.62-5.75-6.25-.22-3.63,2-6.72,4.96-6.9,2.96-.18,5.53,2.62,5.75,6.25Z"/>
          <path class="cls-7" d="M743.51,646.72c-.68,3.57-3.6,6.02-6.5,5.46-2.91-.56-4.71-3.9-4.03-7.48.68-3.57,3.6-6.02,6.5-5.46,2.91.56,4.71,3.9,4.03,7.48Z"/>
          <path class="cls-7" d="M783.06,617.56c10.66.3,15.71,12.91,17.32,19.76.79,3.37-1.44,4.29-3.25,1.14-2.22-3.87-8.22-10.9-15.01-13.59-4.8-1.9-3.2-7.42.94-7.3Z"/>
          <path class="cls-7" d="M752.57,612.34c-8.99-3.69-16.53,2.7-20.33,8.05-2.01,2.82-.51,5.63,2.53,3.64,3.74-2.44,8.04-5.46,15.31-4.76,5.14.49,6.32-5.36,2.49-6.93Z"/>
        </g>
        <path class="cls-9" d="M655.51,1142.91c32.34,11.36,65.68,18.22,121.09,13,32.36-104.52,37.56-355.57,38.62-369.57-25.38,9.75-56.7,15.43-69.94-15.43-63.46,71.56-90.14,180.89-89.76,372Z"/>
        <path class="cls-13" d="M823.98,759.59c-34.29,19.79-55.88,79.9-61.58,171.72-5.69,91.82-12.75,175.75-10.42,203.13,2.33,27.38,10.49,71.62,59.58,75.56,49.09,3.94,121.5,6.48,121.5,6.48,0,0-57.72-354.36-59.68-375.57-1.96-21.21-9.04-54.48-49.4-81.32Z"/>
        <g>
          <g>
            <path class="cls-14" d="M1232.19,1154.96c-22.59-15.11-88.24-59.1-123.82-83.77-34.71,18.16-54.17,56.65-54.17,56.65,0,0,53.31,20.46,82.16,31.24,28.85,10.78,51.32,19.14,66.13,18.95,2.05-.03,2.74-1.7,2.99-2.83l2.87,1.62c3.49,1.97,7.92.62,9.72-2.96,1.15-2.28.87-4.87-.41-6.89l4.75,2.99c3.92,2.47,9.08,1.54,11.89-2.15,3.13-4.11,2.18-9.97-2.11-12.84Z"/>
            <path class="cls-14" d="M1126.79,1085.87l80.81,20.82c4.67,1.2,7.54,5.9,6.48,10.6h0c-1.11,4.92-6.07,7.94-10.95,6.67l-48.28-12.58s-38.24-6.57-28.05-25.51Z"/>
          </g>
          <path class="cls-12" d="M1150.17,1138.64c-3.07.99-6.3,1.59-9.67,1.65l-.06-3.96c14.43-.24,27.94-12.76,33.07-20.6l3.32,2.17c-3.26,4.98-13.34,16.46-26.66,20.75Z"/>
          <rect class="cls-12" x="1196.38" y="1132.71" width="1.98" height="46.14" transform="translate(-408.14 1593.82) rotate(-59.25)"/>
          <rect class="cls-12" x="1184.65" y="1145.16" width="1.98" height="42.69" transform="translate(-383.93 1716.88) rotate(-63.86)"/>
        </g>
        <path class="cls-13" d="M823.98,759.59c44.34,31.39,58.08,53.96,71.42,81.37,13.34,27.41,63.46,117.3,78.37,136.36,14.91,19.06,134.61,93.86,134.61,93.86l-63.93,70.58s-122.54-53.98-146.09-79.41c-23.54-25.42-75.59-119.99-74.38-302.77Z"/>
        <path class="cls-13" d="M752.4,765.3l.45,11.74c-26.77,29.44-47.51,81.3-58.96,147.85-13.01,75.37-18,155.52-18.52,221.86-.3,45.64-42.47,45.06-63.34,29.49,4.43-60.06,21.8-205.03,31.23-249.32,9.03-42.43,27.33-165.7,109.13-161.62Z"/>
        <path class="cls-13" d="M752.44,766.06l.14,3.35c-42.34,16.59-64.93,96.71-64.93,96.71,0,0-26.37,82.79-50.58,101.92-46.97,37.14-81.98,27.29-108.43-.8-13.97-14.83-102.12-155.53-102.12-155.53l72.11-57.19,81.67,109.68s69.29-49.46,95.4-68.68c23.57-17.42,43.64-29.76,76.75-29.47Z"/>
      </g>
      <rect class="cls-3" x="855.18" y="919.11" width="3.97" height="122.34" transform="translate(-297.46 378.17) rotate(-21.29)"/>
      <rect class="cls-3" x="618.59" y="904.78" width="64.08" height="3.96" transform="translate(-410 1254.01) rotate(-72.47)"/>
    </g>
    <g>
      <g>
        <g>
          <path class="cls-2" d="M422.67,676.51l-74.03-74.03v63.41c0,12.27,9.94,22.21,22.21,22.21h103.64c12.27,0,22.21-9.94,22.21-22.21v-63.41l-74.03,74.03Z"/>
          <path class="cls-7" d="M496.7,602.48v-10.62c0-12.27-9.94-22.21-22.21-22.21h-103.64c-12.27,0-22.21,9.94-22.21,22.21v10.62l74.03,74.03,74.03-74.03Z"/>
        </g>
        <circle class="cls-13" cx="482.53" cy="584.02" r="27.28"/>
      </g>
      <rect class="cls-4" x="365.57" y="638.9" width="48.62" height="10.86"/>
    </g>
    <path class="cls-14" d="M484,736.89l-20.1-80.99c-1.16-4.68-5.83-7.59-10.55-6.57h0c-4.93,1.07-7.99,6-6.76,10.89l12.15,48.39s6.23,38.3,25.26,28.27Z"/>
  </g>
  <g>
    <path class="cls-12" d="M754.45,693.83c-.03.13-.02.26-.04.39-2.95,23.41-30.84,25.79-32.9-2.79-.14-1.48-.19-3.06-.14-4.71,7.7.29,26.23,5,33.09,7.11Z"/>
    <path class="cls-8" d="M754.45,693.83c-.03.13-.02.26-.04.39-3.16.81-6.59,1.3-10.23,1.49-9.15.46-17.41-1.25-22.67-4.28-.14-1.48-.19-3.06-.14-4.71,7.7.29,26.23,5,33.09,7.11Z"/>
  </g>
  <path class="cls-4" d="M857.25,678.16c-2.94,7.58-7.87,13.67-13.67,17.6-7.4,5.09-16.24,6.72-24.24,3.62-14.25-5.51-20.36-23.98-13.67-41.22,6.66-17.24,23.64-26.73,37.88-21.22.08.03.16.05.24.11,14.09,5.64,20.1,23.98,13.46,41.11Z"/>
  <path class="cls-4" d="M834.78,637.36c10.87-15.28-1.45-44.83-15.58-58.66,0,0-5.11-5.57-6.82-6.94,3.18.05,4.34.61,7.57,3.08,3.23,2.47,46.2,28.45,29.75,68.29,0,0-14.06-2.31-14.92-5.77Z"/>
  <path class="cls-6" d="M857.25,678.16c-2.94,7.58-7.87,13.67-13.67,17.6-19.91,4.49-35.55-15.48-21.91-39.01,5.98-10.31,13.93-16.63,22.12-19.7,14.09,5.64,20.1,23.98,13.46,41.11Z"/>
  <path class="cls-4" d="M816.85,685.09c-12.05,12.05-35.7,13.34-54.39,13.64-1.8.03-3.28,1.43-3.4,3.23h0c-.14,2.07,1.58,3.8,3.65,3.68,28.42-1.58,46.09-3.37,58.16-16.31l-4.01-4.25Z"/>
  <circle class="cls-13" cx="762.56" cy="702.06" r="7.32"/>
  <circle class="cls-1" cx="532.46" cy="457.43" r="27"/>
  <path class="cls-1" d="M816.43,372.51c0,6.12-4.96,11.07-11.07,11.07s-11.07-4.96-11.07-11.07,4.96-11.07,11.07-11.07,11.07,4.96,11.07,11.07Z"/>
  <circle class="cls-1" cx="693.29" cy="528.62" r="7.91"/>
  <path class="cls-1" d="M922.09,778.48c0,4.81-3.9,8.7-8.7,8.7s-8.7-3.9-8.7-8.7,3.9-8.7,8.7-8.7,8.7,3.9,8.7,8.7Z"/>
  <g>
    <g>
      <path class="cls-7" d="M966.05,941.12v167.57c0,16.55-13.41,29.99-29.99,29.99h-297.35c-16.55,0-29.96-13.43-29.96-29.99v-167.57c0-16.55,13.41-29.99,29.96-29.99h297.35c16.58,0,29.99,13.43,29.99,29.99Z"/>
      <polygon class="cls-5" points="865.75 1138.67 758.06 1138.67 754.23 1012.67 820.55 1012.67 865.75 1138.67"/>
      <path class="cls-4" d="M900.02,1191.8h-56.22l-23.23-179.12h-66.32l-23.23,179.12h-56.22c-4.65,0-8.41,3.77-8.41,8.41v8.27h242.06v-8.27c0-4.65-3.77-8.41-8.41-8.41ZM811.69,1102.45c0,13.42-10.88,24.29-24.29,24.29s-24.29-10.88-24.29-24.29v-10.14c0-13.42,10.88-24.29,24.29-24.29s24.29,10.88,24.29,24.29v10.14Z"/>
    </g>
    <path class="cls-15" d="M787.1,1098.8c-56.01,0-36.47,69.23-36.47,108.03"/>
  </g>
  <g>
    <path class="cls-7" d="M1064.37,566.51c-12.74,0-24.78,1.58-35.49,4.4-5.48,1.44-9.31,6.37-9.31,12.03v93.18c0,7.92,7.3,13.76,15.05,12.11,9.2-1.96,19.24-3.04,29.75-3.04,16.58,0,32.02,2.69,44.83,7.29v-118.68c-12.81-4.6-28.25-7.29-44.83-7.29Z"/>
    <path class="cls-2" d="M1154.04,566.51c-16.58,0-32.02,2.69-44.83,7.29v118.68c12.81-4.6,28.25-7.29,44.83-7.29,10.51,0,20.55,1.08,29.75,3.04,7.75,1.65,15.05-4.18,15.05-12.11v-93.18c0-5.67-3.83-10.59-9.31-12.03-10.71-2.82-22.75-4.4-35.49-4.4Z"/>
  </g>
  <path class="cls-7" d="M1196.37,1219.9H345.03c-3.21,0-5.83-2.62-5.83-5.83h0c0-3.21,2.62-5.83,5.83-5.83h851.34c3.21,0,5.83,2.62,5.83,5.83h0c0,3.21-2.62,5.83-5.83,5.83Z"/>
</svg>