<?xml version="1.0" encoding="UTF-8"?>
<svg id="Layer_1" data-name="Layer 1" xmlns="http://www.w3.org/2000/svg" xmlns:xlink="http://www.w3.org/1999/xlink" viewBox="0 0 1500 1500">
  <defs>
    <style>
      .cls-1 {
        fill: #f09f81;
      }

      .cls-1, .cls-2, .cls-3, .cls-4, .cls-5, .cls-6, .cls-7, .cls-8, .cls-9, .cls-10, .cls-11, .cls-12, .cls-13, .cls-14, .cls-15, .cls-16, .cls-17, .cls-18, .cls-19, .cls-20, .cls-21, .cls-22, .cls-23, .cls-24, .cls-25, .cls-26, .cls-27, .cls-28, .cls-29, .cls-30, .cls-31, .cls-32, .cls-33, .cls-34, .cls-35, .cls-36, .cls-37, .cls-38, .cls-39, .cls-40, .cls-41, .cls-42, .cls-43, .cls-44, .cls-45, .cls-46, .cls-47, .cls-48, .cls-49, .cls-50, .cls-51, .cls-52, .cls-53, .cls-54, .cls-55, .cls-56, .cls-57, .cls-58, .cls-59, .cls-60, .cls-61, .cls-62, .cls-63, .cls-64, .cls-65, .cls-66, .cls-67, .cls-68 {
        stroke-width: 0px;
      }

      .cls-2 {
        fill: #e4765d;
      }

      .cls-3 {
        fill: #91878a;
      }

      .cls-4 {
        fill: #fdd7b3;
      }

      .cls-5 {
        fill: #842511;
      }

      .cls-6 {
        fill: #fdf5eb;
      }

      .cls-7 {
        fill: url(#linear-gradient);
      }

      .cls-8 {
        fill: #161654;
      }

      .cls-9 {
        fill: #1a100e;
      }

      .cls-10 {
        fill: #2c1e5a;
      }

      .cls-11 {
        fill: #fdf2e4;
      }

      .cls-12 {
        fill: #e3e5e8;
      }

      .cls-13 {
        fill: #271438;
      }

      .cls-14 {
        fill: #5727c6;
      }

      .cls-15 {
        fill: #f9907e;
      }

      .cls-16 {
        fill: #d4d5d6;
      }

      .cls-17 {
        fill: #de586a;
      }

      .cls-18 {
        fill: #78a1dc;
      }

      .cls-19 {
        fill: #d6cbc9;
      }

      .cls-20 {
        fill: #731e31;
      }

      .cls-21 {
        fill: #6e3feb;
      }

      .cls-22 {
        fill: #1d224f;
      }

      .cls-23 {
        fill: #2b1810;
      }

      .cls-24 {
        fill: #fab98a;
      }

      .cls-25 {
        fill: #b85256;
      }

      .cls-26 {
        fill: #e58a61;
      }

      .cls-27 {
        fill: #97513b;
      }

      .cls-28 {
        fill: #c0b7b2;
      }

      .cls-29 {
        fill: #fcc0a4;
      }

      .cls-30 {
        fill: #3c3c48;
      }

      .cls-31 {
        fill: #462e70;
      }

      .cls-32 {
        fill: #fff;
      }

      .cls-33 {
        fill: #f17059;
      }

      .cls-34 {
        fill: #6d270d;
      }

      .cls-35 {
        fill: #8a2f40;
      }

      .cls-36 {
        fill: #23130b;
      }

      .cls-37 {
        fill: url(#linear-gradient-2);
      }

      .cls-38 {
        fill: #7a6e6e;
      }

      .cls-39 {
        fill: #d7764b;
      }

      .cls-40 {
        fill: #d3dade;
      }

      .cls-41 {
        fill: #86322a;
      }

      .cls-42 {
        fill: url(#linear-gradient-3);
      }

      .cls-43 {
        fill: #0e1327;
      }

      .cls-44 {
        fill: #191310;
      }

      .cls-45 {
        fill: #844429;
      }

      .cls-46 {
        fill: #613c25;
      }

      .cls-47 {
        fill: #b2c0c9;
      }

      .cls-48 {
        fill: #09093f;
      }

      .cls-49 {
        fill: #c6c6c6;
      }

      .cls-50 {
        fill: #4e5465;
      }

      .cls-51 {
        fill: #161532;
      }

      .cls-52 {
        fill: #16181b;
      }

      .cls-53 {
        fill: #fea26a;
      }

      .cls-54 {
        fill: #f28d91;
      }

      .cls-55 {
        fill: #fbfbfb;
      }

      .cls-56 {
        fill: #eef4f8;
      }

      .cls-57 {
        fill: #d15a60;
      }

      .cls-58 {
        fill: #0e0d16;
      }

      .cls-59 {
        fill: #502f29;
      }

      .cls-60 {
        fill: #19100e;
      }

      .cls-61 {
        fill: #f29134;
      }

      .cls-62 {
        fill: #581522;
      }

      .cls-63 {
        fill: #e58a7a;
      }

      .cls-64 {
        fill: #6e211e;
      }

      .cls-65 {
        fill: #3c161d;
      }

      .cls-66 {
        fill: #f99881;
      }

      .cls-67 {
        fill: #131515;
      }

      .cls-68 {
        fill: #4f03c2;
      }
    </style>
    <linearGradient id="linear-gradient" x1="-5272.74" y1="7859.49" x2="-5427.54" y2="8237.78" gradientTransform="translate(1493.45 -96.86) scale(.09)" gradientUnits="userSpaceOnUse">
      <stop offset="0" stop-color="#f9ab8f"/>
      <stop offset="1" stop-color="#fbd6b3"/>
    </linearGradient>
    <linearGradient id="linear-gradient-2" x1="447.7" y1="727.67" x2="179.22" y2="1216.26" gradientUnits="userSpaceOnUse">
      <stop offset="0" stop-color="#b8b9ca"/>
      <stop offset=".92" stop-color="#959396"/>
    </linearGradient>
    <linearGradient id="linear-gradient-3" x1="182.21" y1="807.85" x2="300.53" y2="807.85" xlink:href="#linear-gradient-2"/>
  </defs>
  <path class="cls-56" d="M948.34,617.58s.25.71.65.33c-.29-.44-.62-.3-.65-.33-1.85-1.48-4.15-2.38-5.98-3.91-15.32-12.8-7.43-41.08,12.39-45.2,3.12-15.88,23.79-22.9,38.03-20.86-1.6-6.46,13.18-9.72,17.82-10.21,14.47-1.54,32.67,2.82,36.94,18.69,12.44-10.16,30.8-7.93,41.18,4.24,11.58,13.57,8.87,31.93-1.96,44.98,23.85,8.23,18.68,38.55,1.09,50.63,14.19,6.35,13.41,25.73,1.3,33.9,9.41,27.18-24.71,45.56-46.39,32.49-14.63,16.12-57.37,14.81-67.58-5.87-8.18,9.71-28.53,7.46-37.81.65-8.93-6.55-9.95-18.27-5.11-27.71-18.35-9.32-16.94-32.99.87-41.94-6.98-5.74-8.89-24.22-5.43-29.12,2.32-3.28,10.16-4,13.8-3.37,2.33.4,4.64,1.77,6.85,2.61Z"/>
  <g>
    <g>
      <path class="cls-12" d="M1252.87,984.51l-13.41-7.24-6.79,12.56c-3.52-1.08-7.23-1.58-11-1.48l-3.98-13.33-14.6,4.36,3.81,12.76c-4.17,2.15-7.77,5.08-10.66,8.57l-12.56-6.79-7.24,13.41,12.95,7c-.75,2.98-1.1,6.07-1.01,9.21l-13.33,3.98,4.36,14.6,12.76-3.81c2.15,4.17,5.08,7.77,8.57,10.66l-5.94,10.98,13.41,7.24,6.14-11.37c3.8.95,7.79,1.28,11.82.86l3.81,12.76,14.6-4.36-3.98-13.33c3.74-2.31,6.93-5.28,9.49-8.72l12.64,6.83,7.24-13.41-13.7-7.4c.63-3.25.79-6.61.44-10l12.76-3.81-4.36-14.6-13.33,3.98c-1.65-2.68-3.64-5.07-5.9-7.15l7-12.95ZM1236,1018.6c2.2,7.38-2.01,15.18-9.39,17.38-7.38,2.2-15.18-2.01-17.38-9.39-2.2-7.38,2.01-15.18,9.39-17.38,7.38-2.2,15.18,2.01,17.38,9.39Z"/>
      <path class="cls-12" d="M937.27,559.41l-7.33-3.96-3.71,6.87c-1.92-.59-3.95-.86-6.01-.81l-2.17-7.28-7.98,2.38,2.08,6.97c-2.28,1.17-4.25,2.78-5.82,4.68l-6.87-3.71-3.96,7.33,7.08,3.82c-.41,1.63-.6,3.32-.55,5.04l-7.28,2.17,2.38,7.98,6.97-2.08c1.17,2.28,2.78,4.25,4.68,5.82l-3.24,6,7.33,3.96,3.36-6.21c2.08.52,4.26.7,6.46.47l2.08,6.97,7.98-2.38-2.17-7.28c2.04-1.26,3.79-2.88,5.18-4.76l6.91,3.73,3.96-7.33-7.49-4.05c.34-1.77.43-3.61.24-5.47l6.97-2.08-2.38-7.98-7.28,2.17c-.9-1.46-1.99-2.77-3.22-3.91l3.82-7.08ZM928.05,578.04c1.2,4.03-1.1,8.29-5.13,9.5-4.03,1.2-8.29-1.1-9.5-5.13-1.2-4.03,1.1-8.29,5.13-9.5,4.03-1.2,8.29,1.1,9.5,5.13Z"/>
    </g>
    <g>
      <path class="cls-12" d="M485.43,582.66c2.51-1.78,4.79-3.9,6.77-6.34l12.7,5.66,6.2-13.92-12.16-5.42c.79-3.32,1.06-6.67.85-9.97l14.54-5.58-5.46-14.23-13.41,5.15c-2.09-3.74-4.88-7.1-8.29-9.86l5.66-12.71-13.92-6.2-5.42,12.16c-3.94-.94-7.94-1.13-11.83-.67l-4.63-12.06-14.23,5.46,4.47,11.65c-3.83,2.42-7.2,5.61-9.86,9.47l-12.16-5.42-6.2,13.92,12.71,5.66c-.49,3.11-.54,6.22-.18,9.27l-13.74,5.27,5.46,14.23,13.33-5.12c2.41,3.83,5.61,7.2,9.47,9.86l-5.42,12.16,13.92,6.2,5.66-12.7c3.73.59,7.47.57,11.1-.05l5.11,13.33,14.23-5.46-5.28-13.74ZM459.92,567.51c-7.04-3.13-10.21-11.41-7.08-18.44,3.13-7.04,11.41-10.21,18.44-7.08,7.04,3.13,10.21,11.41,7.08,18.44-3.13,7.04-11.41,10.21-18.44,7.08Z"/>
      <path class="cls-12" d="M256.49,649.45c1.37-.97,2.62-2.13,3.7-3.46l6.94,3.09,3.39-7.61-6.65-2.96c.43-1.81.58-3.65.47-5.45l7.95-3.05-2.98-7.78-7.33,2.81c-1.14-2.04-2.66-3.88-4.53-5.39l3.09-6.94-7.61-3.39-2.96,6.65c-2.16-.51-4.34-.62-6.47-.37l-2.53-6.59-7.78,2.98,2.44,6.37c-2.09,1.32-3.93,3.07-5.39,5.17l-6.65-2.96-3.39,7.61,6.94,3.09c-.27,1.7-.3,3.4-.1,5.06l-7.51,2.88,2.98,7.78,7.29-2.8c1.32,2.09,3.07,3.93,5.17,5.39l-2.96,6.65,7.61,3.39,3.09-6.94c2.04.32,4.08.31,6.07-.03l2.79,7.28,7.78-2.98-2.88-7.51ZM242.54,641.16c-3.85-1.71-5.58-6.23-3.87-10.08,1.71-3.85,6.23-5.58,10.08-3.87,3.85,1.71,5.58,6.23,3.87,10.08-1.71,3.85-6.23,5.58-10.08,3.87Z"/>
    </g>
    <g>
      <path class="cls-12" d="M889.22,749.87v43.75c0,5.78-4.69,10.48-10.48,10.48h-79.44l-23.98,8.6c-2.46.89-4.82-1.54-3.88-3.97l9.07-23.43v-35.43c0-5.78,4.69-10.48,10.48-10.48h87.75c5.78,0,10.48,4.69,10.48,10.48Z"/>
      <g>
        <path class="cls-16" d="M820.2,772.99c0,4.19-3.39,7.58-7.58,7.58s-7.58-3.39-7.58-7.58,3.39-7.58,7.58-7.58,7.58,3.39,7.58,7.58Z"/>
        <path class="cls-16" d="M844.19,772.99c0,4.19-3.39,7.58-7.58,7.58s-7.58-3.39-7.58-7.58,3.39-7.58,7.58-7.58,7.58,3.39,7.58,7.58Z"/>
        <path class="cls-16" d="M868.18,772.99c0,4.19-3.39,7.58-7.58,7.58s-7.58-3.39-7.58-7.58,3.39-7.58,7.58-7.58,7.58,3.39,7.58,7.58Z"/>
      </g>
    </g>
    <path class="cls-12" d="M1004.79,455.38s10.24-21.39,34.11-22.59c23.87-1.19,33.14,20.11,33.14,20.11,0,0,13.05-3.54,24.19,6.1,9.27,8.03,9.37,18.74,9.37,18.74,0,0,28.88-.62,41.42,5.04,12.5,5.64,20.56,18.54,20.56,18.54h-253.36s12.31-14.96,41.33-13.13c0,0,13.03-38.07,49.25-32.83Z"/>
    <path class="cls-12" d="M364.37,386.79s10.24-21.39,34.11-22.59c23.87-1.19,33.14,20.11,33.14,20.11,0,0,13.05-3.54,24.19,6.1,9.27,8.03,9.37,18.74,9.37,18.74,0,0,28.88-.62,41.42,5.04,12.5,5.64,20.56,18.54,20.56,18.54h-253.36s12.31-14.96,41.33-13.13c0,0,13.03-38.07,49.25-32.83Z"/>
  </g>
  <ellipse class="cls-12" cx="704.84" cy="1278.66" rx="545.14" ry="34.49"/>
  <g>
    <g>
      <path class="cls-16" d="M919.95,1266.02c32.98-42.52,114.31-158.45,69.15-215.38-17.21-21.7-55.61-13.1-62.52,71.31-4.84,59.17-26.9,118.61-37.37,144.08h30.74Z"/>
      <path class="cls-49" d="M904.42,1266.02c21.38-36.3,36.22-74.73,45.47-102.96,12.46-38.04,17.77-66.33,17.82-66.61.19-1.01-.48-1.98-1.49-2.16-1.01-.19-1.98.48-2.17,1.48-.05.28-5.32,28.38-17.72,66.19-9.35,28.53-24.44,67.51-46.24,104.06h4.32Z"/>
    </g>
    <g>
      <path class="cls-12" d="M1138.05,1022.08c-12.98-37.95-69.53-44.8-119.82,67.02-34.65,77.04-92.11,146.38-119.34,176.92h65.33c74.97-51.39,204.15-155.31,173.83-243.95Z"/>
      <path class="cls-16" d="M1085.7,1070.55c-1.29-.75-2.94-.31-3.68.97-.21.36-21,36.14-56.23,81.73-25.04,32.42-61.54,75.05-105.38,112.76h8.21c42.11-36.99,77.17-78.05,101.49-109.54,35.42-45.87,56.37-81.89,56.57-82.25.75-1.29.31-2.93-.98-3.67Z"/>
    </g>
    <g>
      <path class="cls-16" d="M264.9,1245.76c-.21,7.82,1.44,15.42,4.37,22.14h72.47c18.49-16.81,23.89-44.42,11.65-66.85-5.45-9.98-13.72-17.81-26.26-19.3-39.28-4.67-11.69-34.38-26.12-58.12-16.62-27.35-45.44-16.78-55.61-38.37-14.15-30.03-55.7-45.73-59.9-9.44-4.2,36.29,28.38,49.04,16.51,74.89-11.86,25.84-3.93,52.7,20.68,57.57,24.63,4.87,43.02,7.07,42.2,37.48Z"/>
      <path class="cls-49" d="M331.35,1267.9l-105.41-163.42c-.85-1.32-2.61-1.7-3.92-.85-1.32.85-1.7,2.61-.85,3.92l103.43,160.35h6.75Z"/>
    </g>
    <g>
      <path class="cls-12" d="M281.94,1150.26c24.91,18.57,44.28,30.84,27.15,64.36-9.01,17.61-8.85,38.32-1.98,53.28h99.5c16.39-13.26,26.38-33.73,25.17-56.02-.76-14.05-5.82-27.21-19.04-35.56-41.38-26.16,5.28-44.63,1.82-78.84-3.98-39.41-41.81-42.97-41.65-72.51.21-41.08-37.82-80.78-61.87-42.49-24.04,38.29,5.54,69.91-21.49,92.45-27.03,22.53-32.5,56.77-7.6,75.34Z"/>
      <path class="cls-16" d="M363.54,1267.9h7.08l-29.7-231.86c-.25-1.92-2.01-3.29-3.93-3.04-1.92.25-3.29,2.01-3.04,3.93l29.59,230.97Z"/>
    </g>
    <g>
      <path class="cls-16" d="M529.15,1255.17c-54.88-134.27-71.84-229.26-49.01-275.64.91-1.85.15-4.09-1.7-5-1.85-.91-4.09-.15-5,1.7-13.73,27.89-14.17,71.48-1.29,129.55,9.4,42.38,25.84,92.53,48.95,149.39h8.06Z"/>
      <path class="cls-12" d="M464.99,1053.06s-29.58,9.91-44.96-42.78c0,0,49.58-2.32,44.96,42.78Z"/>
      <path class="cls-12" d="M471.52,1080.63s-11.54-28.98,40.21-47.28c0,0,5.08,49.37-40.21,47.28Z"/>
      <path class="cls-12" d="M469.57,1000.12s-20.54-23.48,22.15-57.98c0,0,21.25,44.85-22.15,57.98Z"/>
      <path class="cls-12" d="M482.94,1136.51s-24.48,19.33-56.78-25.05c0,0,45.87-18.96,56.78,25.05Z"/>
      <path class="cls-12" d="M493.84,1163.59s-16.38-26.55,31.43-53.52c0,0,13.54,47.75-31.43,53.52Z"/>
      <path class="cls-12" d="M505.08,1202.15s-24.11,19.79-57.25-23.96c0,0,45.5-19.82,57.25,23.96Z"/>
    </g>
    <g>
      <path class="cls-16" d="M722.55,1261.78c103.8-132.51,152.83-233.2,142.03-292.21-.43-2.35,1.13-4.61,3.48-5.04,2.35-.43,4.61,1.13,5.04,3.48,6.5,35.49-6.83,84.29-39.59,145.04-23.92,44.34-58.16,95.12-101.97,151.28l-8.99-2.55Z"/>
      <path class="cls-12" d="M858.2,1056.47s29.88,20.43,63.75-33.51c0,0-54.61-18.3-63.75,33.51Z"/>
      <path class="cls-12" d="M842.18,1085.18s22.06-28.7-29.91-65.52c0,0-21.31,53.51,29.91,65.52Z"/>
      <path class="cls-12" d="M869.85,995.91s30.37-19.7-6.36-71.74c0,0-37.93,43.34,6.36,71.74Z"/>
      <path class="cls-12" d="M811.73,1143.94s21.21,29.33,71.33-9.97c0,0-45.2-35.69-71.33,9.97Z"/>
      <path class="cls-12" d="M790.98,1170.72s26.69-24.45-18.13-69.7c0,0-30.24,49.02,18.13,69.7Z"/>
      <path class="cls-12" d="M766.21,1210.22s20.65,29.73,71.51-8.62c0,0-44.52-36.54-71.51,8.62Z"/>
    </g>
  </g>
  <g>
    <g>
      <path class="cls-68" d="M1167.86,654.45c6.1,0,11.07,4.96,11.07,11.07s-4.96,11.07-11.07,11.07-11.07-4.96-11.07-11.07,4.96-11.07,11.07-11.07ZM1167.86,673.11c4.19,0,7.6-3.41,7.6-7.6s-3.41-7.6-7.6-7.6-7.6,3.41-7.6,7.6,3.41,7.6,7.6,7.6Z"/>
      <path class="cls-14" d="M1122.68,639.52c6.1,0,11.07,4.96,11.07,11.07s-4.96,11.07-11.07,11.07-11.07-4.97-11.07-11.07,4.97-11.07,11.07-11.07ZM1122.68,658.18c4.19,0,7.6-3.41,7.6-7.6s-3.41-7.59-7.6-7.59-7.6,3.41-7.6,7.59,3.41,7.6,7.6,7.6Z"/>
      <g>
        <g>
          <path class="cls-21" d="M1110.2,603.07c.96,0,1.74.78,1.74,1.74v7.66c0,.96-.78,1.74-1.74,1.74s-1.74-.78-1.74-1.74v-7.66c0-.96.78-1.74,1.74-1.74Z"/>
          <path class="cls-21" d="M1110.2,589.67c.96,0,1.74.78,1.74,1.74v7.66c0,.96-.78,1.74-1.74,1.74s-1.74-.78-1.74-1.74v-7.66c0-.96.78-1.74,1.74-1.74Z"/>
        </g>
        <g>
          <path class="cls-21" d="M1099.45,600.2h6.88c.96,0,1.74.78,1.74,1.74s-.78,1.74-1.74,1.74h-6.88c-.96,0-1.74-.78-1.74-1.74s.78-1.74,1.74-1.74Z"/>
          <path class="cls-21" d="M1114.07,600.2h6.88c.96,0,1.74.78,1.74,1.74s-.78,1.74-1.74,1.74h-6.88c-.96,0-1.74-.78-1.74-1.74s.78-1.74,1.74-1.74Z"/>
        </g>
      </g>
      <g>
        <g>
          <path class="cls-14" d="M1157.11,615.33c.96,0,1.74.78,1.74,1.74v7.66c0,.96-.78,1.74-1.74,1.74s-1.74-.78-1.74-1.74v-7.66c0-.96.78-1.74,1.74-1.74Z"/>
          <path class="cls-14" d="M1157.11,601.94c.96,0,1.74.78,1.74,1.74v7.66c0,.96-.78,1.74-1.74,1.74s-1.74-.78-1.74-1.74v-7.66c0-.96.78-1.74,1.74-1.74Z"/>
        </g>
        <g>
          <path class="cls-14" d="M1146.36,612.46h6.88c.96,0,1.74.78,1.74,1.74s-.78,1.74-1.74,1.74h-6.88c-.96,0-1.74-.78-1.74-1.74s.78-1.74,1.74-1.74Z"/>
          <path class="cls-14" d="M1160.98,612.46h6.88c.96,0,1.74.78,1.74,1.74s-.78,1.74-1.74,1.74h-6.88c-.96,0-1.74-.78-1.74-1.74s.78-1.74,1.74-1.74Z"/>
        </g>
      </g>
    </g>
    <g>
      <path class="cls-68" d="M171.32,1006.34c0,6.1-4.96,11.07-11.07,11.07s-11.07-4.96-11.07-11.07,4.96-11.07,11.07-11.07,11.07,4.96,11.07,11.07ZM167.85,1006.34c0-4.19-3.41-7.6-7.59-7.6s-7.6,3.41-7.6,7.6,3.41,7.6,7.6,7.6,7.59-3.41,7.59-7.6Z"/>
      <path class="cls-14" d="M216.5,991.41c0,6.1-4.96,11.07-11.07,11.07s-11.07-4.97-11.07-11.07,4.96-11.07,11.07-11.07,11.07,4.96,11.07,11.07ZM213.03,991.41c0-4.19-3.41-7.6-7.6-7.6s-7.6,3.41-7.6,7.6,3.41,7.6,7.6,7.6,7.6-3.41,7.6-7.6Z"/>
      <g>
        <g>
          <path class="cls-21" d="M217.91,943.9c-.96,0-1.74.78-1.74,1.74v7.66c0,.96.78,1.74,1.74,1.74s1.74-.78,1.74-1.74v-7.66c0-.96-.78-1.74-1.74-1.74Z"/>
          <path class="cls-21" d="M217.91,930.5c-.96,0-1.74.78-1.74,1.74v7.66c0,.96.78,1.74,1.74,1.74s1.74-.78,1.74-1.74v-7.66c0-.96-.78-1.74-1.74-1.74Z"/>
        </g>
        <g>
          <path class="cls-21" d="M228.66,941.03h-6.88c-.96,0-1.74.78-1.74,1.74s.78,1.74,1.74,1.74h6.88c.96,0,1.74-.78,1.74-1.74s-.78-1.74-1.74-1.74Z"/>
          <path class="cls-21" d="M214.04,941.03h-6.88c-.96,0-1.74.78-1.74,1.74s.78,1.74,1.74,1.74h6.88c.96,0,1.74-.78,1.74-1.74s-.78-1.74-1.74-1.74Z"/>
        </g>
      </g>
      <g>
        <g>
          <path class="cls-14" d="M171,956.16c-.96,0-1.74.78-1.74,1.74v7.66c0,.96.78,1.74,1.74,1.74s1.74-.78,1.74-1.74v-7.66c0-.96-.78-1.74-1.74-1.74Z"/>
          <path class="cls-14" d="M171,942.76c-.96,0-1.74.78-1.74,1.74v7.66c0,.96.78,1.74,1.74,1.74s1.74-.78,1.74-1.74v-7.66c0-.96-.78-1.74-1.74-1.74Z"/>
        </g>
        <g>
          <path class="cls-14" d="M181.75,953.29h-6.88c-.96,0-1.74.78-1.74,1.74s.78,1.74,1.74,1.74h6.88c.96,0,1.74-.78,1.74-1.74s-.78-1.74-1.74-1.74Z"/>
          <path class="cls-14" d="M167.13,953.29h-6.88c-.96,0-1.74.78-1.74,1.74s.78,1.74,1.74,1.74h6.88c.96,0,1.74-.78,1.74-1.74s-.78-1.74-1.74-1.74Z"/>
        </g>
      </g>
    </g>
  </g>
  <g>
    <path class="cls-8" d="M846.52,464.27c1.36,0,2.73.05,4.08.14l.14-76.59-63.95-.1-130.72-.22-76.92-.16-.47,272.53h.09s0-.23,0-.23l76.92-.56c-.23-32.04,22.65-58.85,53.04-64.67,3.84-.74,7.79-1.15,11.85-1.17,29.34-.21,54.28,18.94,62.74,45.5,1.95,6.13,3.04,12.62,3.08,19.38l63.89-.48.1-62.78c-1.36.07-2.75.12-4.11.13-36.12-.07-65.31-29.38-65.25-65.47.07-36.12,29.38-65.31,65.5-65.24ZM628.5,409.44c-3.04,0-5.5-2.46-5.5-5.5s2.46-5.49,5.5-5.49,5.49,2.46,5.49,5.49-2.46,5.5-5.49,5.5ZM795.42,403.94c0-3.03,2.46-5.49,5.49-5.49s5.5,2.46,5.5,5.49-2.46,5.5-5.5,5.5-5.49-2.46-5.49-5.5Z"/>
    <g>
      <path class="cls-30" d="M626.13,404.28c0,1.31,1.06,2.36,2.36,2.36s2.36-1.06,2.36-2.36v-182.12h-4.73v182.12Z"/>
      <path class="cls-30" d="M798.56,404.28c0,1.31,1.06,2.36,2.36,2.36s2.36-1.06,2.36-2.36v-182.12h-4.73v182.12Z"/>
    </g>
  </g>
  <polygon class="cls-9" points="1076.67 681.95 1116.6 741.3 1099.28 753.69 1075.39 717.25 1076.67 681.95"/>
  <g>
    <g>
      <path class="cls-24" d="M911.92,1228.74l-4.62,21.12s12.65,9.39,21.59,4.31l4.65-20.62-21.63-4.8Z"/>
      <g>
        <path class="cls-30" d="M911.62,1248.59s-3.54-7.19-7.33-7.61c-3.79-.42-36.84,17.19-47.07,17.26-10.23.07-11.83,12.5-8.17,14.57,4.17,2.35,77.81,13.43,77.81,13.43,0,0,7.22-25.64,6-33.11-1.22-7.47-13.83-1.45-21.24-4.53Z"/>
        <g>
          <path class="cls-32" d="M892.73,1261.64c.33.17.73.21,1.1.08.73-.26,1.12-1.06.87-1.79-.09-.25-2.14-6.04-5.82-8.83-4.9-3.72-9.67-1.45-9.87-1.35-.7.34-.98,1.19-.64,1.88.34.7,1.19.99,1.88.64.13-.06,3.44-1.58,6.93,1.07,3,2.28,4.84,7.47,4.86,7.52.12.36.38.63.69.79Z"/>
          <path class="cls-32" d="M897.57,1258.51c.33.17.73.21,1.1.08.73-.26,1.12-1.06.87-1.79-.09-.25-2.14-6.04-5.82-8.83-4.9-3.73-9.67-1.45-9.87-1.35-.7.34-.99,1.19-.64,1.88.34.7,1.18.99,1.88.64.13-.06,3.44-1.58,6.93,1.07,3.01,2.29,4.84,7.47,4.86,7.52.12.36.38.63.69.79Z"/>
          <path class="cls-32" d="M886.56,1263.77c.33.17.73.21,1.1.08.73-.26,1.12-1.06.87-1.79-.09-.25-2.14-6.04-5.82-8.84-4.9-3.73-9.67-1.45-9.87-1.35-.7.34-.98,1.19-.64,1.88.34.7,1.19.99,1.88.64.13-.06,3.45-1.58,6.93,1.07,3.01,2.29,4.84,7.47,4.86,7.52.12.36.38.63.69.79Z"/>
        </g>
      </g>
    </g>
    <g>
      <path class="cls-8" d="M1016.37,906.13c-1.89,8.13-3.78,16.51-5.7,25.09-11.32,50.72-23.56,109.04-41.57,167.42-6.57,52.35-18.04,85.6-33.47,138.31-1.53.3-3.75.36-6.33.21-.96-.06-1.98-.15-3.03-.3-6.42-.78-14.11-2.88-18.97-6.54,0,0,9.36-63.81,22.33-135.64,6.9-38.33,19.15-132.18,24.97-177.63,1.98-15.61,3.21-25.48,3.21-25.48l49.1,12.22.81.18,2.1.54,6.54,1.62Z"/>
      <path class="cls-14" d="M1009.82,904.48v.03l-46.52,193.23c-.06.51-9.06,63.78-34.01,139.42-.96-.06-1.98-.15-3.03-.3,24.97-75.64,34.01-139.03,34.1-139.69l46.55-193.38.81.18,2.1.51Z"/>
    </g>
  </g>
  <g>
    <g>
      <polygon class="cls-24" points="1050.61 1226.95 1052.49 1254.69 1072.75 1249.84 1072.75 1226.95 1050.61 1226.95"/>
      <g>
        <path class="cls-30" d="M1059.6,1248.96s10.76-2.86,13.73-2.8c2.97.06,22.87,22.36,29.57,23.68,12.16,2.39,12.15,21.38,4.75,22.32-21.41,2.7-58.02-6.38-58.02-6.38,0,0-3.35-24.37-1.87-32.02,1.47-7.64,5.86-2.56,11.84-4.8Z"/>
        <g>
          <path class="cls-32" d="M1077.3,1269.78c-.38.08-.8.02-1.15-.22-.68-.46-.86-1.38-.4-2.06.15-.23,3.8-5.59,8.3-7.45,5.99-2.48,10.25,1.12,10.43,1.27.62.53.69,1.47.15,2.09-.54.62-1.47.69-2.09.15-.12-.1-3.08-2.53-7.35-.77-3.67,1.52-6.94,6.31-6.97,6.36-.22.33-.55.54-.91.62Z"/>
          <path class="cls-32" d="M1073.21,1265.28c-.38.08-.8.02-1.15-.22-.68-.46-.86-1.38-.4-2.06.15-.23,3.8-5.59,8.3-7.45,6-2.48,10.25,1.12,10.43,1.27.62.53.69,1.47.15,2.09-.53.62-1.47.69-2.09.15-.12-.1-3.09-2.53-7.35-.77-3.68,1.52-6.94,6.31-6.97,6.36-.22.33-.55.54-.91.62Z"/>
          <path class="cls-32" d="M1083.02,1273.61c-.38.08-.8.02-1.15-.22-.68-.46-.86-1.38-.4-2.06.15-.23,3.8-5.58,8.3-7.45,6-2.49,10.25,1.12,10.43,1.27.62.54.69,1.47.15,2.09-.53.62-1.47.69-2.09.15-.12-.1-3.09-2.53-7.35-.77-3.68,1.52-6.94,6.31-6.97,6.36-.22.33-.55.54-.91.62Z"/>
        </g>
      </g>
    </g>
    <g>
      <path class="cls-8" d="M1075.51,1229.95c-4.74,2.04-11.59,2.64-18.19,2.52-1.02,0-2.04-.03-3.03-.12-2.43-.09-141.09.48-143.22.24l76.71-302.86-33.07-33.72,66.87,9.7,3-.21,49.79-3.63s-.03,6.06-.03,15.94c-.03,33.92.15,112.91,2.07,147.04,2.46,44.09-.9,165.11-.9,165.11Z"/>
      <path class="cls-14" d="M1074.37,901.86s-.03,6.06-.03,15.94l-55.98,13.06-2.37-24.73,5.58-.42,3-.21,49.79-3.63Z"/>
      <path class="cls-14" d="M955.53,901.86s.03,6.06.03,15.94l55.98,13.06,2.37-24.73-5.58-.42-3-.21-49.79-3.63Z"/>
    </g>
  </g>
  <g>
    <path class="cls-30" d="M1079.41,902.78c-23.72,5.49-42.88,8.29-61.81,8.46-.12,0-.23.01-.34,0-.12.01-.23,0-.35,0-18.93-.17-38.08-2.97-61.81-8.46-3.32-42.52,11.21-69.44,9.59-117.1-.01-.41-.03-.83-.04-1.24-.07-2.06-.17-4.1-.26-6.13-.19-3.87-.42-7.69-.68-11.45-.14-2.06-.3-4.11-.45-6.13-3.27-41.18-9.8-73.81-6.26-78.27,3.84-4.85,13.61-10.57,23.54-15.88,9.42-5.03,18.98-9.69,23.76-12.87,4.75,2.07,8.54,3.2,12.61,3.18.11,0,.23,0,.35-.01.11.01.23.01.34.01,4.07.02,7.86-1.11,12.62-3.18,4.44,2.96,12.81,7.08,21.35,11.58,10.38,5.47,21.01,11.49,25.11,16.68,3.69,4.66-2.92,40.33-5.86,84.12-.13,1.97-.25,3.95-.37,5.94-.25,4.31-.46,8.7-.61,13.13,0,.18-.01.36-.02.53-.06,1.75-.1,3.47-.12,5.17-.46,44.49,12.91,70.98,9.71,111.94Z"/>
    <path class="cls-9" d="M1055.63,849.03h0c-23.9-.1-44.31-10.98-57.22-20.09-13.96-9.85-22.42-19.83-22.5-19.93-.41-.49-.35-1.21.14-1.62.49-.41,1.21-.35,1.62.14.08.1,8.39,9.89,22.12,19.57,12.63,8.9,32.56,19.53,55.85,19.63.64,0,1.15.52,1.15,1.16,0,.63-.52,1.15-1.15,1.15Z"/>
    <path class="cls-9" d="M1030.72,857.15c-20.74,0-41.43-11.82-42.37-12.36-.55-.32-.74-1.02-.42-1.57.32-.55,1.02-.74,1.57-.42.24.14,24.58,14.04,46.16,11.81.64-.07,1.2.39,1.26,1.03.07.63-.39,1.2-1.03,1.26-1.72.18-3.45.26-5.18.26Z"/>
    <path class="cls-9" d="M1012.36,711.83c-.54,0-1.02-.38-1.13-.94-.12-.62.29-1.23.92-1.34,29.14-5.53,37.93-24.28,38.01-24.47.26-.58.94-.84,1.52-.57.58.26.84.94.57,1.52-.37.82-9.37,20.03-39.68,25.78-.07.01-.15.02-.22.02Z"/>
    <path class="cls-32" d="M1019.66,675.91c-16.74,1.72-22.87-18.54-22.93-18.75-.13-.44.12-.9.56-1.03.44-.13.9.12,1.03.56.24.81,6.04,19.93,22.14,17.44,14.09-2.17,13.3-17.97,13.26-18.65-.03-.46.31-.85.78-.88.46-.03.85.32.88.78.01.18.93,17.98-14.66,20.39-.36.05-.71.1-1.05.13Z"/>
  </g>
  <g>
    <path class="cls-56" d="M964.85,644.96c-.39,2.01-1.15,3.99-1.09,6.08-.39.52-.6.67-.87,1.3-.7.19-1.41,2-1.74,2.61-.8,1.5-1.44,3.06-1.96,4.67-1.45,4.55-6.53,27.84-7.61,33.79-.02-3.59,1.32-7.36,1.96-10.97-4.89.3-6.68,1.57-6.08-2.72.52-3.73,6.28-21.64,8.04-25.1,2.06-4.07,5.4-7.41,9.34-9.67Z"/>
    <path class="cls-56" d="M1070.03,676.9c.05,1.83.78,10.45.43,11.19-.61,1.29-1.73-1.55-3.04-.33-2.07-10.08-4.6-20.09-6.52-30.21-.69-2.07-1.26-4.73-3.04-6.19-.21-1.33-.18-2.7-.43-4.02-.08-.42-.14-.87-.22-1.3,9.28,6.01,11.07,20.73,12.82,30.86Z"/>
    <path class="cls-40" d="M965.07,643.66c-.09.42-.14.88-.22,1.3-3.95,2.26-7.28,5.6-9.34,9.67-1.76,3.46-7.52,21.37-8.04,25.1-1.04-2.59-.02-2.57,0-2.72,1.42-12.41,2.88-29.81,17.6-33.36Z"/>
    <path class="cls-56" d="M1070.03,676.9c-1.75-10.13-3.54-24.84-12.82-30.86-.09-.49-.13-1.03-.22-1.52,13.69,4.3,12.71,20.82,13.04,32.38Z"/>
    <path class="cls-58" d="M1067.09,616.28c1.25,2.88,1.05,2.22,4.02,2.72-2.09,2.06-2.43,1.38-1.09,4.56-3.33-1.16-2.51-1.73-5.98.11.78-3.06,1.37-2.82-1.41-4.89,3.19-.34,3.09.76,4.45-2.5Z"/>
    <path class="cls-58" d="M1059.49,575.42c.82,3.81,3.15,2.29,3.59,2.93-2.68,2.05-1.4,1.75-1.41,4.67-3.49-2.59-2.66-1.4-5.98-.76,2.72-3.62-.88-4.24-.43-4.78,2.9-.32,2.68.64,4.24-2.06Z"/>
    <path class="cls-52" d="M1067.96,590.85c3.11,2.88,2.04-.22,1.09,3.91-1.76-.62-2.5.07-2.61,0-.11-.07-.78-2.37-.76-2.5.05-.25,1.96-1.01,2.28-1.41Z"/>
    <path class="cls-52" d="M955.18,598.68c3.29-.41,2.27,2.96,1.52,3.26-2.39.96-2.15-1.46-2.93-2.72.85-.06,1.34-.53,1.41-.54Z"/>
    <path class="cls-47" d="M948.34,617.58s.36-.11.65.33c-.4.38-.62-.31-.65-.33Z"/>
    <g>
      <path class="cls-22" d="M1045.04,655.39c-.85.07.23-2.61-1.09-.54-1.16,1.83-3.92,13.73-13.36,18.8-9.11,4.89-21.27,1.76-28.14-5.54-.11-.12-1.64-2.87-2.17-1.96,4.71,6.2,12.17,16.39,19.56,19.23,5.56,2.14,13.12.09,17.71-3.69,11.49-9.46,13.98-38.67,13.8-52.59.97.09.13,4,.43,5.98.21,1.35,4.47,10.53,5.11,13.58l.54-1.3c.25,1.32.22,2.69.43,4.02,1.78,1.47,2.35,4.12,3.04,6.19l-.87-.98c-.19,4.83-1.06,9.55-2.17,14.23-1.46,6.11-2.17,7.6-5,13.04.27-3.14-2.71,3-4.35,4.89-18.11,20.98-49.83-18.89-57.8-33.9-1.01-1.89-2.73-5.45-3.04-7.39,3.51,6.32,7.21,12.93,12.28,18.36.53-.85,2.43,1.08,5.54,2.61,7.76,3.81,17.39,5.39,23.69-2.17,5.11-3.64,10.61-15.64,11.73-21.4.36-1.83.6-2.91-.43-2.93,4.38-12.92,6.16-22.28,8.04-35.75,2.99,13.36.27,36.03-3.48,49.22Z"/>
      <path class="cls-31" d="M1034.39,566.95c8.27,15.88,9.85,36.23,3.26,53.02.05-2.96.62-5.52.43-8.58-.17-2.79-1.68-9.35-2.61-12.17-2.1-6.37-5.59-11.34-9.56-16.62-4.15-5.52-8.75-10.72-13.8-15.43-8.42,6.18-15.06,13.55-20.75,22.27-.39.85-.54,2.14-.87,2.93-.94,1.58-1.69,3.03-2.39,4.45-.17.34-.59.3-.65.43-.45.94-.58,2.6-.65,2.82-.06.18-.38.04-.43.22-.07.25.34.42.22.87-1.43,5.17-2.29,6.87-1.96,12.71h-1.52c-.28-9.43-2.44-14.3-1.09-24.88.96-7.55,3.84-14.85,7.17-21.62,1.13-1.06,2.07-2.3,3.37-3.26,13.13-9.69,29.89-7.66,41.83,2.82Z"/>
      <path class="cls-43" d="M993.54,651.7c.82,1.17,1.52,2.32,2.39,3.48,2.62,3.48,4.79,6.7,8.47,9.34-.22,2,.73,1.76,1.09,3.91-3.11-1.53-5.01-3.45-5.54-2.61-5.07-5.43-8.77-12.04-12.28-18.36.31,1.94,2.04,5.5,3.04,7.39,7.97,15.01,39.69,54.88,57.8,33.9,1.63-1.89,4.62-8.03,4.35-4.89-3.59,6.92-13.04,21.87-21.4,22.82-10.24,1.16-23.88-14.78-29.23-22.49-10.54-15.2-16.85-34.85-21.3-52.7l1.09.76c3.18,6.89,7.18,13.22,11.52,19.45Z"/>
      <path class="cls-31" d="M1060.9,657.56c1.92,10.11,4.45,20.13,6.52,30.21,1.13,5.51,2.27,11.05,3.04,16.62-4.32,3.11-9.09,5.49-13.8,7.93h-16.52c-1.83.9-11.12,7.35-12.17,7.17-2.14-1.86-8.86-5.81-10.1-7.17-.28-.3-3.37-4.91-2.17-4.78,25.46,18.36,40.53-16.61,42.16-36.72,1.12-4.68,1.99-9.41,2.17-14.23l.87.98Z"/>
      <path class="cls-31" d="M962.46,711.02c-2.1-.83-12.43-6.99-12.6-7.71.63-3.29,1.14-6.59,1.74-9.89,1.07-5.95,6.16-29.24,7.61-33.79.51-1.61,1.15-3.17,1.96-4.67.89-.58.05.71,0,1.41-.44,6.21,1.39,18.59,3.04,24.77,2.18,8.12,8.41,20.56,15.32,25.53,2.78,2,8.38,3.64,7.93,4.89-4.85.11-16.9.93-20.97.54-.45-.04-4.32-1.87-4.02-1.09Z"/>
      <path class="cls-31" d="M1014.18,712.33h-15.21c-.05-.66-.45-1.01-.98-1.3-4.94-2.75-16.06-3.77-22.49-11.41-6.66-7.91-11.66-25.64-12.6-35.86-.21-2.26-.65-9.87,0-11.41l.43-.11c1.76,23.41,11.87,34.22,33.57,41.61,4.24,4.88,8.25,9.98,13.04,14.34,2.32,2.11,5.82,4.11,4.24,4.13Z"/>
      <path class="cls-22" d="M983.11,613.89h1.52c.17,2.93,2.06,11.91,3.04,14.78.92,2.67,2.83,6.18,4.35,8.58,14.12,22.33,32.69,11.2,43.03-7.06,1.6-2.7,6.88-12.37,7.61-14.67,3.39-10.74.96-31.6-2.82-42.16l.43.11c10.49,14.11,8.78,31.41,5,47.7-.04.19-.43.09-.43.11-.89-1.17-1.12-2.81-2.61-.98-.98,1.21-7.53,16.7-10.65,21.4-4.55,6.87-12.54,14.48-21.4,13.69-2.17-.19-4.88-1.48-6.85-2.39,1.49.05-1.65-2.03-3.91-4.45-1.28-1.37-7.94-9.08-8.69-10.1-6.26-8.52-10.01-19.4-11.73-29.77-.29-1.77-.68-3.54-.87-5.32-.6-5.71,1.16-9.84-2.61-8.58.44-8.66,3.44-15.22,8.69-21.95.28,1.46-1.93,4.59-2.39,5.98-2.57,7.75-2.64,24.26-1.3,32.38,1.73,5.83,2.95,14.47,2.61,2.72Z"/>
      <path class="cls-51" d="M1015.7,707.54c-1.2-.13,1.9,4.48,2.17,4.78h-3.69c1.58-.02-1.91-2.02-4.24-4.13-4.79-4.36-8.8-9.47-13.04-14.34-21.7-7.39-31.81-18.21-33.57-41.61l-.43.11c.27-.63.48-.79.87-1.3,1.29,5.91,2.16,12.04,5.22,17.38,3.54,11.06,14.11,18.2,24.66,21.51.53-.35-1.51-2.5-1.85-3.04-.57-.91-.99-1.91-1.52-2.82.15-1.34-.89-3.68-1.3-5.11-.12-.43.57-.23.43-.65-.54-1.7-6.63-12.7-10-24.23-.1-.34-.26-.14-.43-.33-1-6.18-2.67-12.25-3.48-18.47-.98-7.61-.9-15.32-1.96-22.93.6-2.11.89-4.37,1.74-6.41,4.05,33.21,9.67,69.92,33.68,95.18,1.79,1.88,4.72,4.95,6.74,6.41Z"/>
      <path class="cls-58" d="M1035.48,640.83c-5.74,10.76-8.83,19.49-21.73,23.9-6.39-.44-13.31-5.45-17.38-10.21-.62-.72-1.81-2.4-2.39-3.26-1.45-2.13-2.53-4.89-3.26-6.08l-.65-4.45c.82-.67,1.2,2.32,2.61,2.06,3.13,5.47,4.84,7.5,10.65,10.21,1.96.92,4.67,2.2,6.85,2.39,8.87.79,16.85-6.82,21.4-13.69,1.3-.24,3.11-3.88,3.37-3.91,1.45-.17-.81,3.08.54,3.04Z"/>
      <path class="cls-43" d="M1045.04,655.39c-1.76,6.19-5.39,15.71-9.56,20.54-3.83,4.43-10.06,7.81-15.65,9.45-7.39-2.84-14.84-13.03-19.56-19.23.53-.91,2.06,1.84,2.17,1.96,6.87,7.3,19.03,10.43,28.14,5.54,9.44-5.07,12.2-16.97,13.36-18.8,1.31-2.07.24.62,1.09.54Z"/>
      <path class="cls-10" d="M998.97,712.33h-32.92c-1.23-.37-2.39-.83-3.59-1.3-.3-.78,3.57,1.04,4.02,1.09,4.07.38,16.12-.44,20.97-.54.45-1.25-5.15-2.89-7.93-4.89-6.91-4.97-13.14-17.41-15.32-25.53-1.66-6.18-3.49-18.57-3.04-24.77.05-.7.89-2,0-1.41.33-.61,1.04-2.41,1.74-2.61-.65,1.54-.21,9.15,0,11.41.94,10.21,5.94,27.94,12.6,35.86,6.43,7.64,17.55,8.66,22.49,11.41.52.29.93.65.98,1.3Z"/>
      <path class="cls-51" d="M1040.26,573.47l-.43-.11c3.78,10.56,6.22,31.41,2.82,42.16-.73,2.3-6.01,11.97-7.61,14.67-1.23-1.42.19-1.73.22-1.85.02-.07-.27-.34,0-1.41.52-2.04,1.21-3.99,1.52-6.08.54,1.25.44.22.87-.87,6.59-16.79,5.01-37.14-3.26-53.02,2.64,2.32,3.82,3.76,5.87,6.52Z"/>
      <path class="cls-22" d="M1013.75,664.74c12.9-4.42,15.99-13.14,21.73-23.9,1.91-3.58,4.17-7.06,5.87-10.76,1.16-2.52,1.74-5.93,3.48-7.71-2.43,9.75-10.02,31.33-17.49,37.81-3.74,3.25-8.69,4.9-13.58,4.56Z"/>
      <path class="cls-43" d="M978.98,608.67c1.72,10.37,5.47,21.26,11.73,29.77-.46.8,1.1,2.86,1.96,4.35-1.41.26-1.79-2.73-2.61-2.06l.65,4.45c-3.47-5.67-7.19-11.25-10-17.28l-.43.76c-1.63-6.87-2.82-12-3.69-19.12,1.87,2.34.52-1.28,2.39-.87Z"/>
      <path class="cls-51" d="M983.11,613.89c.35,11.75-.88,3.11-2.61-2.72-1.34-8.12-1.27-24.63,1.3-32.38.46-1.38,2.67-4.51,2.39-5.98,1.66-2.13,3.05-3.6,5-5.43-3.33,6.77-6.21,14.07-7.17,21.62-1.35,10.58.81,15.45,1.09,24.88Z"/>
      <path class="cls-58" d="M1029.17,666.26c-6.3,7.57-15.93,5.98-23.69,2.17-.36-2.15-1.3-1.91-1.09-3.91,8.2,5.89,17.25,5.94,24.77-1.09,1.98.44.95,1.68,0,2.82Z"/>
      <path class="cls-43" d="M1044.82,621.27c-.03.11.26.03,0,1.09-1.73,1.78-2.32,5.19-3.48,7.71-1.69,3.7-3.96,7.17-5.87,10.76-1.35.03.9-3.21-.54-3.04-.26.03-2.07,3.67-3.37,3.91,3.12-4.7,9.67-20.2,10.65-21.4,1.49-1.83,1.72-.19,2.61.98Z"/>
      <path class="cls-31" d="M1056.99,644.53c.09.49.13,1.04.22,1.52.08.43.14.88.22,1.3l-.54,1.3c-.64-3.05-4.9-12.23-5.11-13.58-.3-1.97.54-5.89-.43-5.98-.06-4.45-.76-8.91-.43-13.36,2.28,9.57,4.28,19.13,6.08,28.79Z"/>
      <path class="cls-43" d="M1029.17,666.26c.95-1.14,1.98-2.38,0-2.82,6.04-5.64,8.72-13.91,11.3-21.51,1.04.02.79,1.11.43,2.93-1.12,5.77-6.62,17.77-11.73,21.4Z"/>
      <path class="cls-22" d="M978.98,608.67c-1.87-.41-.52,3.21-2.39.87-.6-4.88-1.34-9.86-1.09-14.78,3.77-1.26,2.01,2.87,2.61,8.58.19,1.78.58,3.56.87,5.32Z"/>
      <path class="cls-22" d="M990.71,645.18c.73,1.19,1.81,3.95,3.26,6.08l-.43.43c-4.34-6.23-8.34-12.56-11.52-19.45l-1.09-.76c-.23-.93-.43-1.89-.65-2.82l.43-.76c2.8,6.02,6.53,11.61,10,17.28Z"/>
      <path class="cls-18" d="M996.36,654.52l-.43.65c-.87-1.16-1.57-2.3-2.39-3.48l.43-.43c.58.86,1.77,2.54,2.39,3.26Z"/>
      <path class="cls-58" d="M1025.91,582.59c-.37.27-1.33-.64-1.96-1.09-7.19-5.09-11.63-9.63-22.06-2.39-5.68,3.95-8.03,7.55-11.41,13.26.33-.79.48-2.08.87-2.93,5.69-8.72,12.33-16.1,20.75-22.27,5.05,4.71,9.65,9.91,13.8,15.43Z"/>
      <path class="cls-51" d="M987.23,601.5c-.13.48-.42.93-.65,1.96-.19.84-.32,1.75-.43,2.61-.61,4.37-.54,6.69,0,11.08.1.77.3,1.61.43,2.39.05.31.16.56.22.87-.32.26-.07,2.39,0,2.72.74,3.36,2.81,5.53.87,5.54-.99-2.87-2.87-11.85-3.04-14.78-.34-5.84.53-7.55,1.96-12.71.13-.45-.29-.62-.22-.87.05-.18.38-.03.43-.22.07-.23.2-1.88.65-2.82.06-.13.48-.09.65-.43.7-1.42,1.45-2.87,2.39-4.45-1.22,2.94-2.4,6.06-3.26,9.13Z"/>
      <path class="cls-13" d="M1025.91,582.59c3.97,5.28,7.46,10.26,9.56,16.62.93,2.82,2.44,9.38,2.61,12.17.18,3.06-.39,5.63-.43,8.58-.43,1.09-.33,2.12-.87.87.57-3.88.4-7.41,0-11.3-.02-.21.03-.44,0-.65-.15-1.28-.32-2.67-.65-3.91-.16-.61-.43-1.16-.65-1.74-.08-.21.5-.18-.22-.65-1.42-7.79-5.66-15.3-11.3-21.08.63.44,1.59,1.35,1.96,1.09Z"/>
      <path class="cls-22" d="M991.8,686.9c.34.54,2.37,2.69,1.85,3.04-10.55-3.31-21.13-10.45-24.66-21.51,4.33,7.58,14.87,15.02,22.82,18.47Z"/>
      <path class="cls-22" d="M990.28,684.08c-.99-1.7-2.18-3.33-3.04-5.11-3.27-6.74-6.81-17.6-7.82-24.88,3.36,11.53,9.46,22.53,10,24.23.13.42-.56.22-.43.65.41,1.43,1.45,3.77,1.3,5.11Z"/>
      <g>
        <path class="cls-31" d="M979.41,654.09c1.01,7.28,4.55,18.14,7.82,24.88.86,1.78,2.06,3.41,3.04,5.11.53.91.95,1.92,1.52,2.82-7.94-3.45-18.49-10.89-22.82-18.47-3.05-5.34-3.93-11.47-5.22-17.38-.07-2.1.69-4.07,1.09-6.08.08-.42.13-.88.22-1.3,2.19-10.55,5.51-20.94,8.47-31.29,1.05,7.6.97,15.32,1.96,22.93.8,6.22,2.48,12.29,3.48,18.47.17.19.34,0,.43.33Z"/>
        <path class="cls-10" d="M968,646.48c2.39,5.63,4.76,10.3,8.58,15.1,1.18,1.48,3.27,3.11,2.5,3.15-5.25-4.9-10.21-10.93-11.08-18.25Z"/>
      </g>
      <path class="cls-58" d="M989.19,628.23c2.41,7.06,12.32,18.25,19.88,19.12,10.08,1.16,22.18-11.94,26.19-20.43-.27,1.07.02,1.34,0,1.41-.03.12-1.44.43-.22,1.85-10.33,18.27-28.91,29.39-43.03,7.06-1.52-2.4-3.43-5.91-4.35-8.58,1.94-.01-.13-2.18-.87-5.54-.07-.33-.32-2.45,0-2.72.51,2.6.97,5.53,2.39,7.82Z"/>
      <path class="cls-43" d="M1003.31,653c-5.81-2.71-7.52-4.74-10.65-10.21-.85-1.49-2.41-3.54-1.96-4.35.75,1.02,7.42,8.74,8.69,10.1,2.26,2.42,5.4,4.51,3.91,4.45Z"/>
      <g>
        <path class="cls-7" d="M1036.78,620.84c-.31,2.09-1,4.05-1.52,6.08-4.01,8.49-16.1,21.58-26.19,20.43-7.56-.87-17.47-12.06-19.88-19.12,2.07,3.33,8.45,3.97,11.95,2.82,7.95,10.39,14.05,9.77,20.64-1.52.15-.12.48-.68.65-.87.39-.41,2.11-1.64.65-1.09-2.18-.92-4.27-8.19,1.52-10.65,1.98-.14,3.71-1.21,5.43-1.96.57-.25,2.59-1.16,2.82-1.3,1.68-1.04,3.26-2.22,3.91-4.13.4,3.89.57,7.42,0,11.3Z"/>
        <path class="cls-63" d="M1023.96,581.51c5.64,5.78,9.88,13.29,11.3,21.08.06-.6-.78-.88-1.09-1.52-5.55-11.6-13.55-23.41-28.36-19.56-11.38,2.96-15.45,16.36-17.49,19.34-.24.35-.63.66-1.09.65.86-3.07,2.04-6.19,3.26-9.13,3.38-5.71,5.73-9.31,11.41-13.26,10.43-7.24,14.86-2.7,22.06,2.39Z"/>
        <path class="cls-4" d="M1034.17,601.07c-4.47-2.78-15.79-1.22-16.3.33-.15.46.87,2.23.98,2.28.47.22,1.28-.2,1.41-.22-1.84,3.3-4.18,5.06-3.91,9.24.03.5.75,3.46,1.2,3.59,1.5.43,0-3.09.76-5.76.13-.47,2.33-4.03,3.04-3.15.02.05.38.6.43.87-1.62,1.57-1.89,5.64-.22,7.17-.07,1.73,1.54,1.63,3.04,1.52-5.79,2.46-3.7,9.73-1.52,10.65-.05.23-.47.55-.65.65-.68.39-2.77,1.2-3.48,1.3-.07,0-.15,0-.22,0-.24-.53,1.34-.49.76-1.09-.17-.18-4.27-1.22-4.78-1.3-.82-.14-1.3.75-1.2-.43.64-.72,1.06-1.89,1.3-2.82.07-.28.9-1.01.22-2.72-.97-2.43-8.14-4.5-7.61,2.72.01.15-.28,1.58.65,2.82q-3.91.98-7.82,1.96c-.43-.22-.87-.44-1.3-.65,3.8-2.86,3.3-8.09-.87-10.43-1.27-1.72-2.18-.23-.43-1.52,4.43-.32,5.88-4.33,3.48-7.82.67.32,1.35.47,2.06.65,2.27,1.44,2.72,8.07,4.24,6.63-1.78-8.55-2.1-9.45-8.26-10.54-5.95-1.06-7.26-.48-13.04,1.09.12-.85.25-1.77.43-2.61,4.32-2.22,11.76-1.46,16.41.22.65-1.59,1.64-2.86.33-3.48-1.28-.6-7.06-.98-8.69-.87-2.23.15-4.2.87-6.3,1.52,2.04-2.98,6.11-16.38,17.49-19.34,14.81-3.85,22.81,7.96,28.36,19.56Z"/>
        <path class="cls-1" d="M999.19,604.98l-.22,2.17c-7.59-2.1-9.94,4.43-12.93,2.61q2.23,2.39,4.45,4.78c.02.19.33.34.22.87-2.45-.71-2.95.45-4.56,1.74-.54-4.39-.61-6.71,0-11.08,5.78-1.57,7.09-2.14,13.04-1.09Z"/>
        <g>
          <path class="cls-29" d="M998.1,617.58c4.17,2.34,4.67,7.57.87,10.43l-.22.33c.78.4,1.26,1.11,1.96,1.63-.1.47.18.76.43,1.09-3.5,1.14-9.88.51-11.95-2.82-1.42-2.3-1.88-5.22-2.39-7.82-.06-.31-.16-.56-.22-.87.43-1.52.51-.34,1.41-.87,1.34-.78,2.57-1.95,4.02-2.61.79.14,2.85-.29,6.08,1.52Z"/>
          <path class="cls-29" d="M990.71,615.41c.32.23.98.59,1.3.65-1.45.66-2.68,1.83-4.02,2.61-.9.53-.98-.65-1.41.87-.14-.78-.34-1.62-.43-2.39,1.61-1.29,2.11-2.45,4.56-1.74Z"/>
        </g>
        <path class="cls-4" d="M1035.48,603.24c.22.58.49,1.13.65,1.74-1.11,2.95-3.97.18-6.19-.22-1.8-.33-9.59-.42-8.58,2.61-.72-.87-2.91,2.68-3.04,3.15-.76,2.67.74,6.18-.76,5.76-.44-.13-1.16-3.08-1.2-3.59-.27-4.17,2.07-5.94,3.91-9.24,4.18-.62,7.85-2.61,15.21-.22Z"/>
        <path class="cls-23" d="M1034.17,601.07c.31.64,1.15.92,1.09,1.52.72.47.14.44.22.65-7.36-2.39-11.03-.4-15.21.22-.13.02-.94.44-1.41.22-.11-.05-1.13-1.82-.98-2.28.51-1.54,11.82-3.11,16.3-.33Z"/>
        <path class="cls-1" d="M1036.13,604.98c.33,1.25.5,2.63.65,3.91-2.63,3.02-4.16-.51-7.06-1.52-2.43-.85-5.94-1.07-7.93.87-.05-.27-.42-.82-.43-.87-1.01-3.03,6.78-2.93,8.58-2.61,2.22.4,5.08,3.17,6.19.22Z"/>
        <path class="cls-65" d="M1022.44,628.66c-.17.18-.5.74-.65.87-.98.83-4.28,2.66-5.43,3.04q-1.2-.22-2.39-.43c1.47-.24,4.58-1.09,5-2.61.71-.1,2.8-.92,3.48-1.3v.43Z"/>
        <path class="cls-63" d="M1022.44,628.66v-.43c.18-.1.6-.42.65-.65,1.46-.56-.27.68-.65,1.09Z"/>
        <path class="cls-4" d="M1014.83,623.88c-3.24,1.05-3.89,2.7-7.39,0-.53-7.22,6.64-5.14,7.61-2.72.68,1.7-.14,2.43-.22,2.72Z"/>
        <path class="cls-56" d="M1011.14,628.23c.64,1.38,5.93,1.5,7.61,1.3.07,0,.15,0,.22,0-.42,1.52-3.53,2.37-5,2.61-5.39.88-6.91-.26-11.3-2.39,2.51-.53,5.52.11,7.61-1.52.74.21.58.06.87,0Z"/>
        <path class="cls-29" d="M1001.14,608.24c-.79-.39-1.26-.83-2.17-1.09l.22-2.17c6.16,1.09,6.48,1.99,8.26,10.54-1.51,1.44-1.97-5.19-4.24-6.63-.71-.18-1.4-.33-2.06-.65Z"/>
        <path class="cls-62" d="M1000.27,628.66c.79.4,1.6.7,2.39,1.09,4.39,2.13,5.91,3.27,11.3,2.39q1.2.22,2.39.43c-5.27,1.77-11.18.77-15.65-2.61-.69-.52-1.18-1.23-1.96-1.63l.22-.33c.44.22.87.43,1.3.65Z"/>
        <path class="cls-33" d="M1014.83,623.88c-.24.93-.66,2.11-1.3,2.82-.32.35-1.96,1.43-2.39,1.52-.29.06-.13.21-.87,0-.13-.04-2.06-1.37-2.17-1.52-.93-1.25-.64-2.67-.65-2.82,3.49,2.7,4.15,1.05,7.39,0Z"/>
        <path class="cls-29" d="M1008.1,626.71c.11.15,2.05,1.49,2.17,1.52-2.08,1.63-5.1.99-7.61,1.52-.79-.38-1.6-.69-2.39-1.09q3.91-.98,7.82-1.96Z"/>
        <path class="cls-29" d="M1018.74,629.53c-1.67.19-6.96.07-7.61-1.3.43-.09,2.07-1.17,2.39-1.52-.1,1.18.37.3,1.2.43.52.09,4.61,1.13,4.78,1.3.58.59-1,.55-.76,1.09Z"/>
        <g>
          <path class="cls-23" d="M994.62,599.33c.21.56-3.19.52-1.63,1.09.25.09,2.71-.33,5.22,0,1.69.22,6.58,2.58,5.11-.22,1.31.62.32,1.89-.33,3.48-4.65-1.68-12.09-2.44-16.41-.22.23-1.03.52-1.48.65-1.96.46,0,.85-.3,1.09-.65,2.1-.65,4.08-1.37,6.3-1.52Z"/>
          <path class="cls-59" d="M1003.31,600.2c1.47,2.8-3.42.44-5.11.22-2.51-.33-4.97.09-5.22,0-1.56-.56,1.84-.52,1.63-1.09,1.63-.11,7.41.27,8.69.87Z"/>
        </g>
        <g>
          <path class="cls-56" d="M1032.87,613.67c-.23.14-2.25,1.06-2.82,1.3-1.7.75-2.68.62-2.82.65,4.51-4.37-1.67-8.95,3.04-5.54q1.3,1.79,2.61,3.59Z"/>
          <path class="cls-11" d="M1030.04,614.97c-1.72.74-3.45,1.81-5.43,1.96-1.5.11-3.11.21-3.04-1.52,1.92,1.76,4.8.4,5.65.22.15-.03,1.13.1,2.82-.65Z"/>
          <g>
            <path class="cls-60" d="M1036.78,608.89c.03.21-.02.44,0,.65-.65,1.91-2.23,3.09-3.91,4.13q-1.3-1.79-2.61-3.59c-4.71-3.41,1.47,1.18-3.04,5.54-.85.19-3.73,1.54-5.65-.22-1.67-1.53-1.4-5.6.22-7.17,1.99-1.94,5.51-1.72,7.93-.87,2.9,1.01,4.44,4.54,7.06,1.52Z"/>
            <path class="cls-59" d="M1022.44,614.76s.52-.37.65-.43c.98.82,4.45.95,4.13-2.39.08.04.32-.04.43,0,.49.17.52-.41.65-.11.49,1.11-1.61,5.33-6.19,3.59.19-.13.28-.59.33-.65Z"/>
            <path class="cls-56" d="M1023.09,614.32c-.14.06-.63.4-.65.43-1.11.28-1.84-1.77-.98-2.17,1.09-.51,1.47,1.6,1.63,1.74Z"/>
            <path class="cls-56" d="M1027.65,611.93c-.11-.04-.35.04-.43,0-2.91-1.36,2.1-3.58.43,0Z"/>
          </g>
        </g>
        <g>
          <path class="cls-17" d="M1001.14,631.05c-.25-.33-.54-.61-.43-1.09,4.47,3.37,10.37,4.37,15.65,2.61,1.16-.39,4.45-2.21,5.43-3.04-6.59,11.29-12.69,11.91-20.64,1.52Z"/>
          <path class="cls-54" d="M1007.33,634.31c2.85.66,7.72-.74,7.28,1.2-.37,1.63-6.88,1.62-7.28-1.2Z"/>
        </g>
        <g>
          <path class="cls-56" d="M997.66,616.06c-1.74,1.29-.83-.2.43,1.52-3.23-1.81-5.3-1.38-6.08-1.52-.33-.06-.98-.42-1.3-.65.11-.53-.2-.68-.22-.87-.35-3.28.92-4.7,4.02-5.43-2.72,3.4-1.72,7.3,3.15,6.95Z"/>
          <g>
            <path class="cls-60" d="M998.97,607.15c.92.25,1.38.7,2.17,1.09,2.41,3.49.95,7.51-3.48,7.82-4.87.35-5.87-3.55-3.15-6.95-3.1.73-4.37,2.15-4.02,5.43q-2.23-2.39-4.45-4.78c2.99,1.82,5.34-4.71,12.93-2.61Z"/>
            <path class="cls-46" d="M1001.58,613.23c-.4,1.19-2.93,2.49-4.02,2.61-6.35.71,2.37-1.54,3.59-2.82.01.02.34.19.43.22Z"/>
            <path class="cls-56" d="M994.73,612.58c.63-.17,2.19,1.77,1.3,2.17-1.76.8-2.46-1.87-1.3-2.17Z"/>
            <path class="cls-56" d="M1001.58,613.23c-.09-.02-.42-.2-.43-.22-2.38-3.65,1.38-2.6.43.22Z"/>
            <path class="cls-38" d="M995.6,611.28c.23.1.19,1.52-.22.87-.18-.29.17-.89.22-.87Z"/>
          </g>
        </g>
      </g>
    </g>
  </g>
  <path class="cls-61" d="M1275.34,772.23l-22.56,53.42c-7.43-4.09-15.87-6.61-24.93-7.1-17.61-.96-33.82,5.99-45.18,17.74-9.49,9.75-15.6,22.84-16.39,37.47-1.22,22.34,10.28,42.46,28.21,53.3,4.03,2.43,8.39,4.4,13.03,5.8l-20.48,48.52-59.02-24.92c11.67-27.72-1.29-59.64-29.01-71.34-27.69-11.7-59.64,1.29-71.34,28.99l-49.79-21.03,21.23-50.26c-1.08-.39-2.14-.79-3.2-1.23-27.72-11.7-40.68-43.64-29.01-71.34,11.7-27.69,43.64-40.66,71.34-28.99,1.05.46,2.11.94,3.11,1.45l24.83-58.77.07.03,209.08,88.25Z"/>
  <path class="cls-24" d="M990.6,885.62l2.93,2.8c2.62,2.5,6.09,2.86,9.5,1.64,1.51-.54,4.03-1.76,5.14-1.94,3.12-.52,9.79-.01,11.28,1.23,1.49,1.25-1.26,3.61-3.34,3.8-2.08.2-5.03.16-7.42.97-2.38.82,2.19,11.44,4.58,15.19,2.4,3.75,9.48,7.31,7.54,10.41-1.94,3.1-6.42-.45-6.42-.45,0,0-1.02,3.49-6.29,2.16,0,0-1.57,2.87-4.95,1.98,0,0-2.51,3.14-5.81,1.45-3.29-1.69-13.51-7.01-20.11-31.53l13.35-7.72Z"/>
  <path class="cls-9" d="M956.98,682.45s-27.24,86.87-30.73,117.5c-3.49,30.62,49.38,96.06,49.38,96.06l16.36-9.04s-31.67-60.8-37.4-84.9l13.53-57.03s-.09-38.21-11.15-62.58Z"/>
  <path class="cls-24" d="M1189.14,731.12s-2.71,9.13-.78,13.16c1.93,4.03,7.53-7.71,7.53-7.71,0,0-6.66,14.23-3.56,16.46,3.09,2.24,9.96-11.4,9.96-11.4,0,0-3.04,10.32-.84,12.28,2.2,1.95,7.62-7.81,7.62-7.81,0,0-1.58,8.43-.08,10.09,1.5,1.66,7.05-6.02,8.38-10.78,1.33-4.76-5.3-5.18-5.3-5.18,0,0-4.11-4.21-6.77-3.48,0,0-3.32-4.41-6.48-4.57,0,0-6.01-6.16-9.66-1.07Z"/>
  <g>
    <g>
      <path class="cls-24" d="M786.08,1027.6c0,8.36.15,15.2,0,25.57-6.4-6.27-18.13-15.81-18.13-15.81l8.68-8.5s5.3-2.93,9.45-1.26Z"/>
      <path class="cls-9" d="M710.22,851.12c-3.54,22.8,2.33,88.16,9.73,100.55,9.63,16.13,45.37,54.27,64.04,73.91,3.37,3.54-17.23,14.8-17.23,14.8,0,0-55.24-41.37-72.5-67.48-4.88-7.39-13.09-28.74-18.61-66.7-1.68-11.51-6.86-35.21-2.65-48.61,4.85-15.43,24.18-18.15,37.22-6.47Z"/>
    </g>
    <g>
      <g>
        <path class="cls-24" d="M692.1,1225.17l-.47,24.25s6.06,4.35,18.41,1.96l4.67-26.14-22.61-.07Z"/>
        <g>
          <path class="cls-30" d="M707.36,1248.25s4.13-5.91,7.56-5.76c3.42.15,30.4,20.33,39.48,21.8,9.08,1.47,8.8,12.74,5.26,14.07-4.03,1.52-71.02,1.26-71.02,1.26,0,0-2.9-23.79-.79-30.26,2.11-6.47,12.49.61,19.51-1.11Z"/>
          <g>
            <path class="cls-32" d="M722.35,1262.45c-.32.1-.67.09-.99-.08-.62-.33-.85-1.09-.52-1.71.11-.21,2.73-5.08,6.39-7.06,4.87-2.64,8.8.04,8.96.16.57.4.71,1.19.31,1.76-.4.57-1.19.71-1.76.31-.11-.07-2.84-1.88-6.31,0-2.98,1.61-5.33,5.98-5.35,6.02-.16.3-.42.51-.72.61Z"/>
            <path class="cls-32" d="M718.48,1259c-.32.1-.67.09-.99-.08-.62-.33-.85-1.09-.52-1.71.11-.21,2.73-5.08,6.38-7.06,4.87-2.64,8.8.04,8.96.16.57.4.71,1.19.31,1.76-.4.57-1.19.71-1.76.31-.11-.07-2.85-1.88-6.31,0-2.99,1.62-5.33,5.98-5.35,6.02-.16.3-.42.51-.72.61Z"/>
            <path class="cls-32" d="M727.55,1265.19c-.32.1-.67.09-.99-.08-.62-.33-.85-1.09-.52-1.71.11-.21,2.73-5.08,6.39-7.06,4.87-2.64,8.8.04,8.96.16.57.4.71,1.19.31,1.76-.4.57-1.19.71-1.76.31-.11-.07-2.85-1.88-6.31,0-2.99,1.62-5.33,5.97-5.35,6.02-.16.3-.42.51-.72.61Z"/>
          </g>
        </g>
      </g>
      <path class="cls-48" d="M717.13,1231.31c-5.94,1.96-13.35,1.21-19.45-.87-1.03-.34-2.01-.72-2.95-1.14-2.63-1.17-4.88-2.58-6.43-4.08,0,0-.94-16.83,3.31-86.66.55-9.01-.45-35.04,8.56-71.39-43.38,10.49-85.21,7.41-117.66-6l43.16-41.62s109.09-12.29,126.13,21.02c11.48,22.43-34.67,190.73-34.67,190.73Z"/>
    </g>
    <g>
      <g>
        <path class="cls-24" d="M477.53,1201.11l-21.75,10.73s-1.08,7.38,6.72,17.25l25.36-7.87-10.33-20.11Z"/>
        <g>
          <path class="cls-30" d="M464.04,1225.28s7.14.96,8.59,4.07c1.44,3.11-4.08,36.34-1.21,45.08,2.87,8.74-7.27,13.67-10.08,11.14-3.2-2.88-33.77-62.49-33.77-62.49,0,0,19.79-13.51,26.51-14.61,6.72-1.1,5.2,11.37,9.96,16.81Z"/>
          <g>
            <path class="cls-32" d="M458.33,1245.12c-.24-.23-.39-.56-.38-.92,0-.7.58-1.26,1.28-1.25.23,0,5.76.09,9.2,2.43,4.58,3.11,4.01,7.83,3.98,8.03-.09.69-.73,1.18-1.42,1.09-.69-.09-1.18-.73-1.09-1.42.01-.13.36-3.39-2.9-5.61-2.8-1.9-7.76-1.99-7.81-1.99-.34,0-.64-.14-.87-.36Z"/>
            <path class="cls-32" d="M459.61,1240.1c-.24-.23-.39-.56-.38-.92,0-.7.58-1.26,1.28-1.25.23,0,5.76.09,9.2,2.43,4.58,3.11,4.01,7.83,3.98,8.03-.09.69-.73,1.18-1.42,1.09-.69-.09-1.18-.73-1.09-1.42.01-.13.36-3.39-2.9-5.61-2.81-1.91-7.76-1.99-7.81-1.99-.34,0-.65-.14-.87-.36Z"/>
            <path class="cls-32" d="M458.28,1251c-.24-.23-.39-.56-.38-.92,0-.7.58-1.26,1.28-1.25.23,0,5.76.09,9.2,2.43,4.58,3.11,4.01,7.83,3.98,8.03-.09.69-.73,1.18-1.42,1.09-.69-.09-1.18-.73-1.09-1.42.01-.13.36-3.39-2.9-5.61-2.82-1.91-7.76-1.99-7.81-1.99-.34,0-.65-.14-.87-.36Z"/>
          </g>
        </g>
      </g>
      <path class="cls-8" d="M656.41,1163.78c-14.65,20.5-172.83,62.39-172.83,62.39-4.32-4.24-7.02-10.85-8.07-17.03-.18-1.01-.31-2-.39-2.98-.27-3.19-.07-6.13.61-8.39,0,0,8.33-10.13,71.52-35.03,8.39-3.31,25.94-17.73,53.32-27.62-23.63-41.68-42.9-82.18-44.07-117.77l12.31,3.36,2.81.77,53.52,14.62c22.36,42.27,43.12,111.07,31.26,127.68Z"/>
      <path class="cls-14" d="M611.43,1136.79c-.53,1.73-1.71,3.13-3.32,3.94-10.91,5.53-37.61,19.34-49.94,28.09-6.78,4.82-21.8,11.41-37.7,18.39-17.2,7.56-34.95,15.34-44.96,21.93-.18-1.01-.31-2-.39-2.98,10.4-6.56,27.58-14.1,44.27-21.43,15.76-6.92,30.65-13.45,37.21-18.11,12.47-8.86,39.32-22.75,50.29-28.31.94-.48,1.63-1.3,1.95-2.32.32-1.02.2-2.1-.32-3.04-28.69-51.77-37.19-92.5-39.71-112.25l2.81.77c2.65,19.83,11.26,59.66,39.25,110.17.87,1.59,1.07,3.41.54,5.14Z"/>
    </g>
    <g>
      <path class="cls-30" d="M650.27,795.28s-27.34-.46-44.45,6.54c-17.12,7-18.82,33.42-25.89,52.85-7.07,19.43-42.19,145.79-19.11,169.71,17.43,18.06,111,21.3,114.5-9.96,2.33-20.79,7.44-47.94,18.29-97.87,7.16-32.94,16.82-55.77,17.82-70.12,1.01-14.35-34.93-43.61-34.93-43.61l-26.23-7.55Z"/>
      <path class="cls-9" d="M660.54,824.99c-12.81-4.42-19.93-22.12-20.24-22.9-.19-.49.05-1.05.54-1.24.49-.2,1.05.05,1.24.54.07.19,7.53,18.72,20.2,22.13.51.14.81.66.67,1.17-.14.51-.66.81-1.17.67-.42-.11-.84-.24-1.24-.38Z"/>
      <path class="cls-9" d="M596.57,974.32c-.45-.16-.73-.63-.62-1.11.11-.52.62-.84,1.14-.73,34.41,7.61,67.9-44.94,68.23-45.48.28-.45.87-.58,1.32-.3.45.28.58.87.3,1.32-1.39,2.22-34.55,54.23-70.26,46.33-.04,0-.07-.02-.11-.03Z"/>
      <path class="cls-9" d="M615.73,961.53c-.3-.1-.55-.36-.62-.7-.12-.52.21-1.03.72-1.14,21.35-4.78,29.49-19.87,29.57-20.02.24-.47.82-.65,1.29-.4.47.25.65.82.4,1.29-.34.65-8.59,16.02-30.85,21.01-.18.04-.36.03-.52-.03Z"/>
    </g>
    <g>
      <path class="cls-30" d="M710.96,747.28c-4.72,20.65-25.29,33.57-45.94,28.85-20.65-4.72-33.57-25.29-28.85-45.94,4.72-20.65,25.29-33.57,45.94-28.85,20.65,4.72,33.57,25.29,28.85,45.94Z"/>
      <path class="cls-30" d="M640.31,719.61s-1.79-13.42,8.83-18.86,17.03-1.63,26.18-6.25c9.15-4.62,46.37-3.68,47.18,13.9s-15.23,18.16-15.23,18.16l-66.96-6.96Z"/>
      <g>
        <path class="cls-15" d="M702.29,756.3s7.73-6.54,10.64.99c2.91,7.54-7.72,25.4-17.43,18.23l6.79-19.22Z"/>
        <path class="cls-2" d="M699.22,770.1c.4.09.82-.09,1.03-.47,3.03-5.57,9.75-6.58,9.82-6.59.51-.07.87-.54.8-1.05-.07-.51-.54-.87-1.05-.8-.31.04-7.72,1.13-11.21,7.55-.25.45-.08,1.02.37,1.27.08.04.16.07.24.09Z"/>
        <path class="cls-2" d="M706.13,768.53c.17.04.35.03.53-.03.49-.18.74-.71.56-1.2-.03-.08-.74-1.99-2.79-3.54-.41-.31-1-.23-1.31.18-.31.41-.23,1,.18,1.31,1.58,1.19,2.15,2.67,2.16,2.68.11.31.37.52.67.59Z"/>
      </g>
      <path class="cls-24" d="M651.08,782.59l-4.38,19.18s5.96,10.26,13.54,12.69c7.57,2.44,14.37-5.67,14.37-5.67l4.21-18.45-27.74-7.76Z"/>
      <path class="cls-15" d="M651.08,782.59l-1.94,8.51c3.87,6.95,12.76,10.49,26.87,11.59l2.82-12.35-27.74-7.76Z"/>
      <path class="cls-24" d="M711.19,743.37c-1.16,5.52-2.96,12.74-5.64,20.08-.69,1.91-1.44,3.83-2.25,5.73-5.81,13.55-14.77,26.14-28.27,27.74-27.71,3.29-34.05-18.2-35.59-33.47-.16-1.58-.27-3.09-.34-4.5-.09-1.67-.09-3.51-.03-5.45.29-7.77,1.7-17.26,3.06-24.79,1.55-8.69,8.5-15.42,17.26-16.66,12.6-1.81,31.02-1.32,45.54,11.95,5.36,4.9,7.75,12.25,6.28,19.37Z"/>
      <path class="cls-30" d="M687.51,755.56c-.47,2.05.21,3.95,1.51,4.25,1.3.3,2.74-1.12,3.2-3.17.47-2.05-.21-3.95-1.51-4.25-1.3-.3-2.74,1.12-3.2,3.17Z"/>
      <path class="cls-30" d="M659.91,749.25c-.47,2.05.21,3.95,1.51,4.25,1.3.3,2.74-1.12,3.2-3.17.47-2.05-.21-3.95-1.51-4.25-1.3-.3-2.74,1.12-3.2,3.17Z"/>
      <path class="cls-30" d="M700.13,746.47s-8.93-6.12-17.23-4.58l-.17,3.65s8.6.04,15.93,4.86c.87-1.5,1.73-2.12,1.47-3.93Z"/>
      <path class="cls-30" d="M655.23,736.21s10.7-1.64,17.51,3.35l-1.43,3.36s-7.76-3.7-16.46-2.54c-.13-1.73-.63-2.66.38-4.18Z"/>
      <path class="cls-15" d="M672.01,765.8c-1.54-.35-2.93-1.3-3.14-1.45-.42-.3-.52-.88-.23-1.3.3-.42.88-.52,1.3-.23.75.52,2.6,1.5,3.58,1.18.19-.06.46-.21.64-.75,1.06-3.11,2.62-13.97,2.64-14.08.07-.51.55-.87,1.06-.79.51.07.87.55.79,1.06-.07.45-1.61,11.15-2.72,14.42-.42,1.23-1.23,1.72-1.83,1.92-.66.22-1.39.18-2.09.02Z"/>
      <path class="cls-32" d="M679.14,776.11c-1.39,2.99-4.88,8.27-11.87,6.56-7.01-1.71-7.69-7.48-7.47-11.28l19.35,4.72Z"/>
      <path class="cls-30" d="M701.84,762.6c1.55-3.6,3.34-8.3,3.41-10.89.12-4.6-2.93-8.02-.75-11.99,2.19-3.98-1.25-9.57-4.39-11.08-3.12-1.52-11.21-1.64-17.99-6.98-6.46-5.1-19.63-5.52-22.74-1.33-3.77,5.07-.51,6.37-8.69,10.91-3.25,1.81-1.49,8.85-1.97,13.05-.23,1.93-.41,2.86-.94,4.87l-.26,1.02-8.12-1.85c.56-6.56,1.65-13.69,2.71-19.63,1.55-8.69,8.51-15.4,17.26-16.66,12.61-1.81,31.02-1.32,45.55,11.96,5.36,4.9,7.75,12.25,6.26,19.36-1.15,5.52-2.96,12.74-5.62,20.08l-3.72-.85Z"/>
      <g>
        <path class="cls-24" d="M642.19,752.66c.51-2.12.85-4.27.95-6.45.15-2.97-.09-5.76-2.74-7.62-2.13-1.5-4.64-2.09-7.04.15-5.9,5.52-5.63,26.97,6.22,24.72l2.61-10.81Z"/>
        <path class="cls-15" d="M638.86,757.07c-.37-.17-.6-.57-.54-.99.94-6.27-3.82-11.12-3.87-11.17-.36-.37-.36-.96,0-1.32.36-.37.96-.37,1.32,0,.22.22,5.48,5.55,4.4,12.77-.08.51-.55.86-1.06.79-.09-.01-.17-.04-.25-.07Z"/>
        <path class="cls-15" d="M634.29,751.65c-.16-.07-.3-.19-.4-.34-.28-.43-.16-1.01.27-1.29.07-.05,1.79-1.15,4.36-1.14.51,0,.93.42.93.94,0,.52-.42.93-.94.93-1.98,0-3.32.83-3.34.84-.28.18-.61.19-.89.07Z"/>
      </g>
      <g>
        <path class="cls-32" d="M679.8,755.29c1.35-6.02,7.35-9.82,13.37-8.47,6.02,1.35,9.82,7.35,8.47,13.37-1.35,6.02-7.35,9.82-13.37,8.47-6.02-1.35-9.82-7.35-8.47-13.37ZM681.5,755.68c-1.14,5.08,2.06,10.15,7.15,11.29,5.08,1.14,10.15-2.06,11.29-7.15,1.14-5.08-2.06-10.15-7.15-11.29-5.08-1.14-10.15,2.07-11.29,7.15Z"/>
        <path class="cls-32" d="M649.95,748.59c1.35-6.02,7.35-9.82,13.37-8.47,6.02,1.35,9.82,7.35,8.47,13.37-1.35,6.02-7.35,9.82-13.37,8.47-6.02-1.35-9.82-7.35-8.47-13.37ZM651.65,748.97c-1.14,5.08,2.06,10.15,7.15,11.29,5.08,1.14,10.15-2.06,11.29-7.15,1.14-5.08-2.06-10.15-7.15-11.29-5.08-1.14-10.15,2.06-11.29,7.15Z"/>
        <path class="cls-32" d="M700.58,756.27c.22.05.45.02.65-.11h0c.06-.04,6.1-3.74,12.27-.76.43.21.95.03,1.16-.41.21-.43.03-.96-.41-1.17-7.05-3.41-13.68.68-13.96.85-.41.26-.53.8-.27,1.2.13.2.33.34.55.39Z"/>
        <path class="cls-32" d="M652.38,745.44c.28.06.58-.01.8-.23.35-.34.35-.89.02-1.23-.28-.29-6.88-7.01-13.7-7.4-.48-.03-.89.34-.92.82-.03.48.34.89.82.92,6.14.35,12.49,6.81,12.55,6.87.12.13.27.21.43.24Z"/>
        <path class="cls-32" d="M671.74,750.91s2.66-2.3,5.32-1.71c2.63.59,3.85,3.73,3.86,3.76l1.63-.61c-.06-.16-1.55-4.05-5.11-4.86-3.54-.79-6.73,1.98-6.86,2.1l1.16,1.31Z"/>
      </g>
    </g>
    <path class="cls-61" d="M922.44,970.5c13.3-26.7,2.42-59.12-24.26-72.4-26.7-13.3-59.12-2.42-72.4,24.26l-35.12-17.46-27.65,56.83c-.96-.55-1.96-1.07-2.99-1.58-26.82-13.04-59.14-1.88-72.19,24.94-13.04,26.82-1.87,59.12,24.95,72.17,1.03.51,2.06.96,3.11,1.4l-22.72,46.69s0,0-.01,0l-1,2.03,186.83,93.02,100.35-201.58-56.9-28.31Z"/>
    <g>
      <path class="cls-24" d="M826.3,960.56c-.36-1.74-6.26-3.98-11.95-5.75.05-.2.11-.41.16-.61,7.95,1.57,21.68,3.77,20.5.04-.78-2.44-12.46-4.69-19.53-5.85.04-.38.08-.76.12-1.14,8.45,1.25,24.92,3.18,23.36-.96-1.05-2.77-15.5-4.6-22.95-5.36.01-.34.02-.67.03-.99,7.21.77,21.06,1.74,19.5-2.39-1.41-3.74-22.85-4.08-22.85-4.08h0l-7.99-1.12s0-2.79,5.74-4.66,8.37-5.94,1.05-5.49c-8.28.5-15.35,3.48-21.12,3.64-5.77.16-11.73,5.93-11.73,5.93l-2.35,15.57s20.95,12.63,34.66,12.29h0c7.18,2.04,15.97,3.96,15.35.92Z"/>
      <path class="cls-9" d="M600.35,805.09c16.06,18.91,74.54,84.97,87.25,91.8,16.55,8.89,68.36,22.41,94.48,29.67,4.71,1.31-2.9,25.13-2.9,25.13,0,0-74.49-9.85-102.71-23.38-7.98-3.83-39.33-24.49-62.3-49.49-7.87-8.56-19.08-23.28-24.09-36.4-6.02-15.79-.54-30.16,10.28-37.32Z"/>
    </g>
  </g>
  <g>
    <path class="cls-30" d="M1160.27,1286.73h-26.08c-3.55,0-6.69-4.02-7.79-9.95l-11.06-59.9c-.45-2.45.52-5,1.98-5.2,20.13-2.75,40.07-2.75,59.81,0,1.46.2,2.43,2.75,1.97,5.2l-11.06,59.9c-1.1,5.93-4.24,9.95-7.79,9.95Z"/>
    <path class="cls-9" d="M1176.8,1216.03c0,1.59-13.16,2.88-29.39,2.88s-29.39-1.29-29.39-2.88,13.16-2.89,29.39-2.89,29.39,1.29,29.39,2.89Z"/>
    <path class="cls-21" d="M1196.79,1135.08c-15.66-4.13-39.6,28.39-46.86,60.08v-46.18c3.65-6.48,10.62-16.23,23.27-26.53,19.67-16.02,37.77-36.58,22.08-40.71-14.71-3.87-36.7,24.55-45.35,54.27v-59.31c2.53-3.93,6.69-9.1,13.32-14.5,12.4-10.1,23.81-23.05,13.92-25.66-8.58-2.26-21.1,12.93-27.24,30.07v-19.22c1.02-5.95,2.45-14.44,6.38-23.12,9.12-20.12,14.04-40.85,2.02-39.3-12.03,1.54-19.83,37.37-13.25,64.88v9.89c-4.44-20.13-19.69-40.98-29.64-38.36-9.89,2.61,1.52,15.56,13.92,25.66,9.44,7.69,13.85,14.88,15.73,18.75v46.72c-7.13-31.86-31.23-64.74-46.98-60.59-15.69,4.13,2.41,24.69,22.08,40.71,14.86,12.1,21.88,23.45,24.9,29.62v56.03c-7.62-31.27-31.11-62.84-46.55-58.77-15.69,4.13-2.23,19.16,19.87,37.33,15.02,12.35,23.07,25.38,26.68,32.47v26.39c1.75.49,3.39.49,4.85,0v-10.5c3.07-6.22,10.1-17.43,24.78-29.39,19.67-16.02,37.77-36.58,22.08-40.71Z"/>
  </g>
  <g>
    <g>
      <polygon class="cls-53" points="248 1239.99 247.9 1261.03 263.81 1260.25 265.32 1238.92 248 1239.99"/>
      <g>
        <path class="cls-30" d="M254.74,1257.15s7.91-1.99,10.09-1.92c2.18.07,16.55,16.61,21.46,17.64,8.89,1.87,8.71,15.8,3.27,16.41-15.73,1.78-42.48-5.23-42.48-5.23,0,0-2.22-17.9-1.07-23.5,1.15-5.59,4.32-1.82,8.73-3.41Z"/>
        <g>
          <path class="cls-32" d="M267.52,1272.59c-.28.06-.58,0-.84-.17-.49-.34-.62-1.02-.27-1.51.11-.16,2.84-4.06,6.16-5.38,4.42-1.76,7.5.92,7.63,1.03.45.4.49,1.09.09,1.53-.4.45-1.09.49-1.53.09-.08-.07-2.24-1.89-5.38-.64-2.7,1.08-5.15,4.56-5.17,4.6-.17.24-.41.39-.67.44Z"/>
          <path class="cls-32" d="M264.56,1269.26c-.28.06-.58,0-.84-.17-.49-.34-.62-1.02-.28-1.51.11-.17,2.84-4.06,6.16-5.38,4.42-1.76,7.5.92,7.63,1.03.45.4.49,1.09.09,1.53-.4.45-1.09.49-1.53.09-.08-.07-2.24-1.89-5.38-.64-2.72,1.08-5.15,4.56-5.17,4.6-.17.24-.41.39-.67.45Z"/>
          <path class="cls-32" d="M271.68,1275.45c-.28.06-.58,0-.84-.17-.49-.34-.62-1.02-.27-1.51.11-.17,2.84-4.06,6.16-5.38,4.42-1.77,7.5.92,7.63,1.03.45.4.49,1.09.09,1.53-.4.45-1.09.49-1.53.09-.08-.07-2.24-1.89-5.38-.64-2.72,1.08-5.15,4.56-5.17,4.6-.17.24-.41.39-.68.45Z"/>
        </g>
      </g>
    </g>
    <g>
      <polygon class="cls-53" points="369.38 1240.96 368.72 1259.24 352.01 1258.37 351.61 1238.96 369.38 1240.96"/>
      <g>
        <path class="cls-30" d="M364.46,1258.41s3.64-4.75,6.47-4.5c2.83.24,24.47,17.95,31.95,19.49,7.48,1.54,5.94,7.04,4.53,9.84-1.41,2.8-59.79-1.9-59.79-1.9,0,0-1.36-17.41.62-22.71s10.33.95,16.21-.22Z"/>
        <g>
          <path class="cls-32" d="M376.39,1270.71c-.27.08-.56.05-.82-.11-.5-.29-.67-.94-.37-1.44.1-.17,2.44-4.11,5.55-5.62,4.13-2.01,7.29.35,7.43.45.46.35.55,1.01.2,1.47-.35.46-1.01.55-1.47.2-.09-.06-2.29-1.66-5.23-.23-2.53,1.23-4.63,4.76-4.65,4.8-.14.24-.37.41-.62.48Z"/>
          <path class="cls-32" d="M373.3,1267.71c-.27.08-.56.05-.82-.1-.5-.29-.67-.94-.37-1.44.1-.17,2.44-4.11,5.55-5.62,4.13-2.01,7.29.35,7.43.45.46.35.55,1.01.2,1.47-.35.46-1.01.55-1.47.2-.09-.06-2.29-1.66-5.23-.23-2.54,1.24-4.63,4.76-4.65,4.8-.14.24-.37.41-.62.48Z"/>
          <path class="cls-32" d="M380.6,1273.17c-.27.08-.56.05-.82-.1-.5-.29-.67-.94-.37-1.44.1-.17,2.44-4.11,5.55-5.62,4.13-2.02,7.29.35,7.43.45.46.35.55,1.01.2,1.47-.35.46-1.01.55-1.47.2-.09-.06-2.29-1.66-5.23-.23-2.54,1.24-4.63,4.76-4.65,4.8-.14.24-.37.41-.62.48Z"/>
        </g>
      </g>
    </g>
    <path class="cls-37" d="M401.3,907.73c3.93.04,8.5.69,12.29.53,3.83-.16,7.84-1.5,11.76-1.34.05-17.37-.31-34.75-.53-52.12-.4-30.9-.82-54.89-5.88-85.8-3.87-23.66-10.01-46.51-19.78-68.42-.28-.62.7-.97.53-1.34-1.63-3.59-4.69-8.46-6.95-11.76-16.43-12.04-35.35-19.34-53.46-28.33.88,10.47-1.34,13.77-10.42,18.71-10.59,5.76-11.89,4.93-12.56.53h-9.62c-.08,2.29-1.04,4.82-.53,7.22-.37.52-1.98.21-2.67.27-12.22,1.07-52.42-5.94-74.3.53-.83.85-1.94,1.43-2.67,2.41q-.53,1.47-1.07,2.94c-7.01,37.54-27.71,104.04-26.19,139.25l31.54,75.91c.9-16.99,1.18-34.07,2.14-51.05.7-12.43,1.68-24.8,3.21-37.15.45-3.15-.51-6.28-.53-9.35,0-1.53-1.07-5.71-1.07-7.22.05-13.57.05-27.12,1.6-40.63.65-18.07-3.19-36.42.8-54.26,5.44-1.43,29.57,76.61,31.81,83.66q.53,2.67,1.07,5.35c-.05.47-.09.95-.13,1.42l-29.8-9.97-9.6,189.01c-8.29,21.12-23.34,271.63-12.92,271.94,55.39,1.62,134.3-5.53,189.71-5.6,0-19.51-10.03-262.91-10.03-282.42-.72.26-4.59,1.07-5.35,1.07-3.2,11.62-15.97,10.42-17.64,1.87-1.32-6.76,6.16-35.01,7.48-44.37,6.1-43.19,1.97-87.01,2.14-130.43,8.87,25.15,5.72,51.98,9.09,78.05,1.77,13.73,5.52,27.4,8.55,40.89Z"/>
    <g>
      <g>
        <g>
          <path class="cls-50" d="M401.3,907.73c-1.25-.01-2.49,0-3.74,0-1.03,0-5.65-1.35-6.41-.27-.29.41.21,7.07,0,8.82-7.35,7.7-3.45,17.78-2.14,26.73.4,2.71-1.64,12.51,3.74,8.55.33-.24.3-.24.53-.53q.53.53,1.07,1.07c-.03.08.07.48-.53,1.6-1.8,3.31-8.87,1.42-5.88,7.22.42.81,2.87.8,3.74.8-3.2,11.62-15.97,10.42-17.64,1.87-1.32-6.76,6.16-35.01,7.48-44.37,6.1-43.19,1.97-87.01,2.14-130.43,8.87,25.15,5.72,51.98,9.09,78.05,1.77,13.73,5.52,27.4,8.55,40.89Z"/>
          <path class="cls-50" d="M283.16,660.76c-.15,2.36.39,7.5,0,10.42q10.16,7.35,20.31,14.7c-12.22,1.07-52.42-5.94-74.3.53,6.91-7.04,23.22-14.34,32.61-18.18,6.97-2.85,14.12-5.47,21.38-7.48Z"/>
          <path class="cls-28" d="M230.77,906.92c.9-16.99,1.18-34.07,2.14-51.05q1.6-.8,3.21-1.6c-1.23,21.03-1.81,42.1-3.74,63.08"/>
          <path class="cls-28" d="M397.55,907.73v4.28c-.82.19-5.66,3.49-6.41,4.28.21-1.75-.29-8.41,0-8.82.77-1.08,5.39.26,6.41.27Z"/>
        </g>
        <g>
          <path class="cls-26" d="M406.11,953.16c-2.19-5.57-8.16,1.33-12.29.53.61-1.12.5-1.53.53-1.6,1.85-4.17,4.4-11.74,2.67-16.04.33-.76,1.05-1.22,1.07-1.34.02-.14-.88-.59-1.07-1.34-1.93-7.41-1.71-5.11-2.14-.53-.21,2.21-2.02,9.74.53,9.62-.4,2.32-.76,6.77-2.14,8.55-.23.3-.21.29-.53.53-.2-5.56,4.3-8.32-3.74-8.55-1.31-8.95-5.21-19.03,2.14-26.73.75-.79,5.6-4.08,6.41-4.28,2.84-.68,11.85.29,15.5-1.07.03,16.73,4.57,29.16-6.95,42.23Z"/>
          <path class="cls-27" d="M406.11,953.16c-2.49,2.82-5.3,6.11-9.09,7.48-.72.26-4.59,1.07-5.35,1.07-.87,0-3.32,0-3.74-.8-2.99-5.8,4.08-3.9,5.88-7.22,4.14.8,10.11-6.1,12.29-.53Z"/>
          <path class="cls-27" d="M401.3,907.73c3.93.04,8.5.69,12.29.53.39,2.15-.53,2.54-.53,2.67-3.65,1.36-12.66.39-15.5,1.07v-4.28c1.25,0,2.49-.01,3.74,0Z"/>
          <path class="cls-39" d="M392.74,951.56c-5.39,3.96-3.35-5.84-3.74-8.55,8.04.23,3.54,3,3.74,8.55Z"/>
          <path class="cls-45" d="M397.02,936.06c1.73,4.3-.82,11.86-2.67,16.04q-.53-.53-1.07-1.07c1.38-1.78,1.73-6.23,2.14-8.55.29-1.66-.34-5.32,0-6.15.22-.53,1.56-.16,1.6-.27Z"/>
          <path class="cls-19" d="M397.02,933.38c.19.74,1.09,1.19,1.07,1.34-.02.12-.74.58-1.07,1.34-.05.11-1.39-.26-1.6.27-.34.83.29,4.49,0,6.15-2.56.12-.74-7.42-.53-9.62q1.07.27,2.14.53Z"/>
          <path class="cls-45" d="M397.02,933.38q-1.07-.27-2.14-.53c.43-4.57.21-6.87,2.14.53Z"/>
        </g>
        <g>
          <path class="cls-57" d="M332.87,534.6q7.22,6.68,14.43,13.36c-2.29.13-10.55,1.91-19.51,2.14-10,.25-19.31-.44-29.13-1.07q-4.28-6.15-8.55-12.29c4.06-3.21,3.9-3.51,9.09-5.35,18.19-6.45,24.96.31,33.68,3.21Z"/>
          <path class="cls-35" d="M298.66,549.03c-.4-.03-3.38,1.03-8.02.53-5.63-.6-9.64-2.57-10.16-2.67,2.58-3.96,5.93-7.23,9.62-10.16q4.28,6.15,8.55,12.29Z"/>
          <g>
            <path class="cls-57" d="M399.69,699.25c-1.63-3.59-4.69-8.46-6.95-11.76-8.48-12.42-21.07-15.75-31-32.34-7.45-12.44-10.55-25.69-12.83-39.82-.68-4.22.98-3.28-1.6-8.55-.02-.03-.13.17-.53-.53-.2-.35.66-2.04-1.07-1.6v-1.87c-1.43-2.04-4.08-4.31-5.35-6.15-.37-.53-.7-1.09-1.07-1.6-.03-.05.1-.21-.53-1.07-2.79-3.78-4.13-5.62-7.48-9.09-4.14-4.29-8.45-7.89-13.36-11.23,7.21-.05,32.66-.67,37.42-4.81,8.54,27.91,19.85,54.72,29.94,82.06,2.4,6.51,3.43,13.77,5.88,20.31,1.37,3.66,11.96,24.26,11.76,25.66-.08.58-2.59,1.91-3.21,2.41Z"/>
            <path class="cls-35" d="M314.7,573.09l-.53,1.6c-1.08,1.29-2.81,1.3-4.28,1.6-4.15-1.54-8.72-.02-12.83,0-4.94.02-10.56-1.81-15.24.53-7.29,3.65-1.28,11.32-.27,14.97.01.04.59-.13.53.53-1.51,2.96-5.77,7.17-6.41,8.29-.03.06.71.48.53.8-.17.32-3.21,1.58-2.67,6.15.11.96,4.86,10.48,6.41,12.03-4.41,14.33-7.75,39.24-18.18,48.65-9.39,3.84-25.69,11.13-32.61,18.18-.83.85-1.94,1.43-2.67,2.41q-.53,1.47-1.07,2.94c-.81-.24-2.4,1.65-2.67,2.14-.85-.5-2.06-.56-2.14-1.87-.14-2.2,19.77-33.44,24.06-36.88,5.78-29.63,14.6-58.68,26.73-86.33,7.16,4.21,34.07,4.22,43.3,4.28Z"/>
            <path class="cls-20" d="M392.74,687.49c-16.43-12.04-35.35-19.34-53.46-28.33-.04-.42-1.81-4.21-1.07-8.29l-3.21-.8c.02-.32-.96-2.34-.53-6.41,5.68-7.76,6.34-13.46,9.09-19.78,1.32-3.03,3.64-5.73,5.35-8.55,2.28,14.13,5.38,27.39,12.83,39.82,9.93,16.59,22.53,19.92,31,32.34Z"/>
            <path class="cls-20" d="M289.57,641.51c-1.86,2.38-.78,5.91-1.07,8.82-.04.43-1.03-.03-1.07.8-4.66-1.09-3.75,1.51-4.28,9.62-7.26,2.01-14.41,4.63-21.38,7.48,10.43-9.4,13.76-34.31,18.18-48.65h.53c2.25,10.63,2.61,13.4,9.09,21.92Z"/>
            <path class="cls-57" d="M297.06,576.3c-2.81,1.62-5.15,3.64-7.48,5.88-3.34,3.21-5.49,5.71-8.02,9.62-1.01-3.65-7.02-11.32.27-14.97,4.68-2.34,10.3-.51,15.24-.53Z"/>
          </g>
          <g>
            <path class="cls-67" d="M280.49,546.9c.52.1,4.52,2.07,10.16,2.67-.98-.09.15,2.61.27,2.67,2.71,1.51,55.07,2.25,61.74-1.07.97,2.98-.26,3.89,0,5.08.29,1.32,10.08,6.13,2.67,12.56-4.76,4.14-30.21,4.76-37.42,4.81-.16,0,.4-.51-3.21-.53-9.23-.06-36.14-.07-43.3-4.28-5.44-3.2-4.38-8.73,1.6-11.23-2.42,3.76,15.02,5.34,21.92,5.88,10.35.82,46.02,1.21,54.26-1.6,3.39-1.16,3.22-3.64,1.6-4.28-1.03-.4-18.42,1.54-21.38,1.6-10.9.25-22.55.64-33.41,0-3.08-.18-19.41-1.8-20.85-2.67-4.49-2.72-1.3-10.37,1.87-10.69,1.06-.11,1.31.64,3.47,1.07Z"/>
            <path class="cls-20" d="M295.99,559.19l-1.07,4.28c-6.89-.54-24.33-2.12-21.92-5.88.11-.05.22-.48,2.14-1.07,1.44.87,17.77,2.49,20.85,2.67Z"/>
            <path class="cls-67" d="M352.65,551.17c-6.67,3.32-59.03,2.58-61.74,1.07-.12-.07-1.24-2.76-.27-2.67,4.64.5,7.62-.56,8.02-.53,9.82.62,19.13,1.32,29.13,1.07,8.96-.23,17.22-2.01,19.51-2.14,2.53-.15,4.21-.28,5.35,3.21Z"/>
            <path class="cls-25" d="M294.92,563.47l1.07-4.28c10.86.64,22.51.25,33.41,0,2.96-.07,20.35-2.01,21.38-1.6,1.62.63,1.79,3.12-1.6,4.28-8.24,2.81-43.91,2.42-54.26,1.6Z"/>
          </g>
        </g>
        <g>
          <path class="cls-27" d="M324.32,652.21q-6.41,8.15-12.83,16.3c.07.93,4.38.35,4.81.27.29,2.9-.39,7.04,0,9.62h-9.62c.02-.47-1.04-5.61-.53-9.35-9.05-4.08-19.26-6.42-18.71-17.91.04-.83,1.03-.37,1.07-.8.29-2.91-.79-6.44,1.07-8.82,9.03,11.88,20.22,18.96,34.75,10.69Z"/>
          <g>
            <path class="cls-3" d="M287.43,651.14c-.55,11.49,9.66,13.82,18.71,17.91-.51,3.74.55,8.89.53,9.35-.08,2.29-1.04,4.82-.53,7.22-.37.52-1.98.21-2.67.27q-10.16-7.35-20.31-14.7c.39-2.92-.15-8.07,0-10.42.53-8.12-.38-10.72,4.28-9.62Z"/>
            <path class="cls-55" d="M339.29,659.15c.88,10.47-1.34,13.77-10.42,18.71-10.59,5.76-11.89,4.93-12.56.53-.39-2.58.29-6.72,0-9.62,1.01-.2,10.27-4.07,11.49-4.81,7.91-4.79,6.82-6.29,7.22-13.9l3.21.8c-.74,4.07,1.03,7.87,1.07,8.29Z"/>
          </g>
          <path class="cls-67" d="M331.27,584.85c3.35,3.47,4.69,5.31,7.48,9.09l-.53.53c-10.7-5.22-20.42,2.25-20.31-4.54.07-4.46,9.7-2.55,12.56-2.94l.8-.8c-.58-.35-.63-.19-1.07-.8l1.07-.53Z"/>
          <path class="cls-53" d="M346.77,606.23c-2.21,11.02,1.72,12.03.53.53,2.59,5.28.92,4.34,1.6,8.55-1.71,2.82-4.03,5.52-5.35,8.55-2.25-3.16.27-14.03,2.14-19.24,1.73-.44.87,1.25,1.07,1.6Z"/>
          <path class="cls-34" d="M347.31,606.77c1.18,11.49-2.74,10.49-.53-.53.4.71.52.5.53.53Z"/>
          <path class="cls-27" d="M293.85,582.18c-1.17,1.83-3.08,2.98-4.28,4.81-2.97,4.53-2.06,3.85-2.14,8.55-.04,2.22-.39,4.86.53,6.95.07.15-.11.59.53.53-3.05,4.64,1.64,19.54,3.21,25.12-1.41-1.34-5.05-4.17-5.88-5.61-4.12-7.17-2.2-21.99-3.74-30.2.06-.66-.52-.5-.53-.53,2.53-3.91,4.68-6.41,8.02-9.62.7-.14,2.28,1.09,2.41,1.07.11-.02.32-.45,1.87-1.07Z"/>
          <path class="cls-27" d="M280.49,619.6h-.53c-1.56-1.54-6.3-11.07-6.41-12.03-.54-4.57,2.5-5.83,2.67-6.15,5.33,1.28,7.98,15.39,4.28,18.18Z"/>
          <path class="cls-41" d="M309.89,576.3c-10.51,2.14-13.04,4.68-16.04,5.88-1.55.62-1.76,1.05-1.87,1.07-.13.02-1.7-1.21-2.41-1.07,2.33-2.24,4.68-4.26,7.48-5.88,4.11-.02,8.68-1.54,12.83,0Z"/>
          <path class="cls-53" d="M334.48,643.65c-.43,4.07.55,6.09.53,6.41-.4,7.61.69,9.11-7.22,13.9-1.22.74-10.48,4.61-11.49,4.81-.43.08-4.74.66-4.81-.27q6.41-8.15,12.83-16.3c5.29-3.01,8.78-9.91,10.16-8.55Z"/>
          <path class="cls-44" d="M304.54,593.94c-.11-.08-.39.08-.53,0-4.46-2.39-12.91-1.8-16.57,1.6.08-4.71-.83-4.02,2.14-8.55,8.54-.68,20.73-1.46,14.97,6.95Z"/>
          <path class="cls-39" d="M305.08,616.39c-.92.82-1.09.65-1.34,2.14-.93.13-2.51-.19-2.94,0q1.87-5.35,3.74-10.69c-.22,2.55-.07,5.32-1.07,7.75.91,2.54,3.76-7.22,3.21-15.24,2.43.04,1.5,13.08,1.07,14.17-.42,1.05-1.92,1.2-2.67,1.87Z"/>
          <g>
            <path class="cls-53" d="M330.2,585.38c.44.61.49.46,1.07.8l-.8.8c-2.86.39-12.49-1.52-12.56,2.94-.1,6.79,9.61-.67,20.31,4.54.05.03-.18.73,1.07.53.37.51.7,1.07,1.07,1.6,1.75,13.42,4.06,32.01-11.76,37.15,7.97-21.87-7.39-8.73-10.42-14.7-.88-.23-8.13,4.19-13.1-2.67.76-.67,2.26-.82,2.67-1.87.43-1.08,1.36-14.13-1.07-14.17-.16-2.32.09-4.75-2.14-6.41,5.76-8.41-6.43-7.63-14.97-6.95,1.2-1.83,3.1-2.98,4.28-4.81,2.99-1.2,5.53-3.74,16.04-5.88,1.47-.3,3.2-.31,4.28-1.6,2.02-.07,14.68,8.79,16.04,10.69Z"/>
            <path class="cls-64" d="M317.9,573.62c4.92,3.34,9.23,6.94,13.36,11.23l-1.07.53c-1.36-1.9-14.02-10.77-16.04-10.69l.53-1.6c3.6.02,3.04.54,3.21.53Z"/>
            <path class="cls-5" d="M339.29,595.01c-1.25.2-1.02-.51-1.07-.53l.53-.53c.63.86.5,1.02.53,1.07Z"/>
            <path class="cls-44" d="M326.72,597.15c7.42-.5,9.22,6.71-.53,5.35-6.54-.92-5.66-4.93.53-5.35Z"/>
          </g>
          <path class="cls-34" d="M306.68,600.35c.55,8.01-2.29,17.78-3.21,15.24,1-2.43.85-5.2,1.07-7.75.39-4.65,2.29-9.42-.53-13.9.14.08.42-.08.53,0,2.23,1.66,1.98,4.1,2.14,6.41Z"/>
          <path class="cls-53" d="M304.01,593.94c2.82,4.48.93,9.25.53,13.9q-1.87,5.35-3.74,10.69c-1.5.69-5.25.82-6.41,3.47-2.97,6.77,6.64,14.99-2.67,6.15-1.57-5.58-6.26-20.49-3.21-25.12,3.36-5.1,7.77,3.35,14.43-2.94-3.43-4.22-13.1-3.17-14.97,2.41-.93-2.09-.57-4.73-.53-6.95,3.66-3.4,12.11-4,16.57-1.6Z"/>
          <path class="cls-44" d="M288.5,603.03c-.64.05-.47-.38-.53-.53,1.86-5.58,11.53-6.62,14.97-2.41-6.66,6.29-11.07-2.16-14.43,2.94Z"/>
          <g>
            <path class="cls-67" d="M291.71,628.15c9.31,8.84-.29.62,2.67-6.15,1.16-2.66,4.91-2.79,6.41-3.47.43-.19,2.01.13,2.94,0,.25-1.49.41-1.32,1.34-2.14,4.96,6.87,12.22,2.45,13.1,2.67,3.03,5.97,18.39-7.17,10.42,14.7,15.82-5.14,13.51-23.73,11.76-37.15,1.27,1.84,3.91,4.1,5.35,6.15v1.87c-1.86,5.21-4.39,16.08-2.14,19.24-2.74,6.32-3.41,12.02-9.09,19.78-1.38-1.36-4.87,5.55-10.16,8.55-14.53,8.26-25.72,1.18-34.75-10.69-6.47-8.52-6.84-11.29-9.09-21.92,3.7-2.79,1.05-16.9-4.28-18.18.17-.32-.57-.75-.53-.8.64-1.12,4.9-5.33,6.41-8.29,1.54,8.21-.37,23.03,3.74,30.2.83,1.44,4.47,4.28,5.88,5.61Z"/>
            <g>
              <path class="cls-57" d="M327.53,627.62c-2.9,2.88-4.4,7.38-8.55,9.09-4.78,1.96-11.5,1.28-14.43-3.21.22-.21.86-1.2,1.07-1.6.28.09.77-.08,1.07,0,5.05,1.37,9.71,5.05,16.57-4.81.48-.69,1.26-1.34,1.6-2.14,1.4.28,2.55-.11,2.67,2.67Z"/>
              <path class="cls-53" d="M327.53,627.62c.05,1.25-5.42,15.69-7.75,17.11-3.1,1.88-14.35,1.33-17.11-1.07-1.37-1.19-.08-1.13-.27-1.6h5.61l-1.34.8c2.58,3.23,4.39,1.01,6.95-.27,2.54-1.27,5.66-2.21,5.35-5.88,4.15-1.7,5.65-6.21,8.55-9.09Z"/>
              <path class="cls-6" d="M323.25,627.08c-6.86,9.86-11.52,6.18-16.57,4.81-1.33-1.91-2.74-2.51-3.74-4.81,6.5,4.34,13.54,2.59,20.31,0Z"/>
              <path class="cls-27" d="M305.61,631.89c-.21.41-.85,1.4-1.07,1.6-.23.22-1.19-1.32-1.07.27.1,1.32,4.54,10.41,10.16,8.82-2.56,1.28-4.37,3.5-6.95.27l1.34-.8h-5.61c-1.77-4.41-.2-8.92-3.74-12.56.43-.8,3.21,1.24,6.95,2.41Z"/>
              <path class="cls-66" d="M324.85,624.94c-.34.8-1.12,1.44-1.6,2.14-6.77,2.59-13.82,4.34-20.31,0-.04-.08-1.74-.62-.8-1.6,9.61,4.12,14.51-2.17,22.72-.53Z"/>
              <path class="cls-36" d="M304.54,633.5c2.93,4.48,9.65,5.17,14.43,3.21.32,3.67-2.81,4.61-5.35,5.88-5.62,1.59-10.05-7.51-10.16-8.82-.12-1.59.84-.05,1.07-.27Z"/>
            </g>
          </g>
        </g>
      </g>
      <path class="cls-50" d="M273,856.67c-.73-20.06-5.52-40.19-3.21-60.41q-.53-2.67-1.07-5.35c-2.24-7.05-26.37-85.09-31.81-83.66-3.99,17.84-.15,36.19-.8,54.26-1.56,13.51-1.55,27.06-1.6,40.63,0,1.5,1.06,5.69,1.07,7.22q1.6-10.82,3.21-21.65h1.07c-.13,22.25-2.44,44.37-3.74,66.55-.93,15.86-1.49,31.75-2.53,47.61-.52,7.82-1.13,15.59-1.29,23.44-.05,2.47-.06,4.95-.08,7.43l-.03-.03-1.02,30.29c-.47,3.86-.39,7.72-.39,11.6v.17s0,0,0,0c0,.28,0,.57,0,.85,8.31,2.71,26.28,1.52,33.94-1.6,8.57-3.49,7.28-8.68,7.75-16.84.53-9.04.92-89.91.53-100.5Z"/>
    </g>
    <path class="cls-61" d="M458.17,984.45l-.05.12-235.38-94.78,95.14-236.18,66.65,26.86c12.6-31.29,48.18-46.42,79.44-33.83,31.29,12.6,46.42,48.18,33.83,79.44l55.45,22.34-26.74,66.36c-1.13-.55-2.3-1.05-3.5-1.54-31.29-12.6-66.86,2.54-79.46,33.82-12.6,31.29,2.55,66.84,33.83,79.44,1.2.49,2.41.92,3.62,1.33l-22.83,56.63Z"/>
    <path class="cls-53" d="M447.14,844.69s-12.64,1.97-16.42,6.63c-3.78,4.66,13.69,4.69,13.69,4.69,0,0-21.1.11-22.03,5.16-.94,5.04,19.56,5.52,19.56,5.52,0,0-14.28,2.25-15.38,6.05-1.1,3.79,13.86,4.76,13.86,4.76,0,0-11.14,2.93-12.29,5.72-1.15,2.78,11.36,5.09,17.91,3.96,6.55-1.13,3.23-9.42,3.23-9.42,0,0,2.74-7.4.33-10.22,0,0,3.44-6.57,1.81-10.5,0,0,4.01-10.84-4.26-12.34Z"/>
    <g>
      <path class="cls-53" d="M347.07,943.21c-1.18,4.38-7.74,1.81-7.74,1.81,0,.14-.05,4.49-6.67,4.81,0,0-.82,3.97-5.11,4.13,0,0-1.86,4.62-6.34,3.83-4.29-.77-17.09-3.12-32.63-26.09-.88-1.23-1.72-2.54-2.57-3.91l.96-1.04s.03-.03.03-.03l2.32-2.49,9.68-10.42.25.14,4.24,2.13c3.99,2,8.23,1.18,11.84-1.5,1.59-1.18,4.1-3.53,5.36-4.16,3.5-1.75,11.57-3.56,13.78-2.63,2.22.93-.19,4.73-2.57,5.72-2.38.98-5.91,2-8.42,3.83-2.52,1.83,6.73,12.74,10.91,16.3,4.21,3.56,13.87,5.22,12.69,9.57Z"/>
      <path class="cls-42" d="M300.53,911.4c-.33.82-.74,1.67-1.29,2.54-2.35,3.86-6.54,7.9-9.98,10.88-.79.68-1.56,1.31-2.27,1.89,0,0,0,.03-.03.03-1.94,1.56-3.28,2.54-3.28,2.54-49.8-19.83-82.87-59.18-95.96-77.12-4.21-5.74-6.13-12.85-5.33-19.96,1.53-14.06,5.2-40.99,13.1-74.85,14.52-62.19,35.96-70.94,35.96-70.94.25.71.44,1.53.6,2.43-.03.03,0,.03,0,.03,1.07,6.56-.11,17.94.11,26.53.46,17.48-1.04,34.95-4.29,52.13-5.03,26.5-9.95,59.67-9.95,59.67,19.72,28.74,82.62,84.21,82.62,84.21Z"/>
    </g>
    <path class="cls-50" d="M289.59,921.49l-.27,2.73-.05.6-.68,6.86c-.88-1.23-1.72-2.54-2.57-3.91l.96-1.04c-1.94,1.56-3.28,2.54-3.28,2.54-49.8-19.83-82.87-59.18-95.96-77.12-4.21-5.74-6.13-12.85-5.33-19.96,1.53-14.06,5.2-40.99,13.1-74.85,14.52-62.19,35.96-70.94,35.96-70.94.25.71.44,1.53.6,2.43-.03.03,0,.03,0,.03-7.52,18.51-41.19,105.54-29.48,146.12,13.13,45.56,87.02,86.5,87.02,86.5Z"/>
  </g>
</svg>